SplineFontDB: 3.2
FontName: Ahud-Icons
FullName: Ahud Icons
FamilyName: Ahud Icons
Weight: Book
Version: 001.002
ItalicAngle: 0
UnderlinePosition: -150
UnderlineWidth: 50
Ascent: 800
Descent: 200
InvalidEm: 0
sfntRevision: 0x00010000
LayerCount: 2
Layer: 0 1 "Back" 1
Layer: 1 1 "Fore" 0
XUID: [1021 98 1998124304 15581]
StyleMap: 0x0040
FSType: 0
OS2Version: 4
OS2_WeightWidthSlopeOnly: 0
OS2_UseTypoMetrics: 0
CreationTime: 1609590599
ModificationTime: 1717537093
PfmFamily: 17
TTFWeight: 400
TTFWidth: 5
LineGap: 90
VLineGap: 0
Panose: 2 0 5 3 0 0 0 0 0 0
OS2TypoAscent: 800
OS2TypoAOffset: 0
OS2TypoDescent: -200
OS2TypoDOffset: 0
OS2TypoLinegap: 90
OS2WinAscent: 800
OS2WinAOffset: 0
OS2WinDescent: 195
OS2WinDOffset: 0
HheadAscent: 800
HheadAOffset: 0
HheadDescent: -195
HheadDOffset: 0
OS2SubXSize: 650
OS2SubYSize: 700
OS2SubXOff: 0
OS2SubYOff: 140
OS2SupXSize: 650
OS2SupYSize: 700
OS2SupXOff: 0
OS2SupYOff: 480
OS2StrikeYSize: 49
OS2StrikeYPos: 258
OS2CapHeight: 636
OS2XHeight: 694
OS2Vendor: 'CLGR'
OS2CodePages: 00000001.00000000
OS2UnicodeRanges: 00000003.00000000.00000000.00000000
DEI: 91125
TtTable: fpgm
PUSHB_1
 0
FDEF
PUSHB_1
 0
SZP0
MPPEM
PUSHB_1
 42
LT
IF
PUSHB_1
 74
SROUND
EIF
PUSHB_1
 0
SWAP
MIAP[rnd]
RTG
PUSHB_1
 6
CALL
IF
RTDG
EIF
MPPEM
PUSHB_1
 42
LT
IF
RDTG
EIF
DUP
MDRP[rp0,rnd,grey]
PUSHB_1
 1
SZP0
MDAP[no-rnd]
RTG
ENDF
PUSHB_1
 1
FDEF
DUP
MDRP[rp0,min,white]
PUSHB_1
 12
CALL
ENDF
PUSHB_1
 2
FDEF
MPPEM
GT
IF
RCVT
SWAP
EIF
POP
ENDF
PUSHB_1
 3
FDEF
ROUND[Black]
RTG
DUP
PUSHB_1
 64
LT
IF
POP
PUSHB_1
 64
EIF
ENDF
PUSHB_1
 4
FDEF
PUSHB_1
 6
CALL
IF
POP
SWAP
POP
ROFF
IF
MDRP[rp0,min,rnd,black]
ELSE
MDRP[min,rnd,black]
EIF
ELSE
MPPEM
GT
IF
IF
MIRP[rp0,min,rnd,black]
ELSE
MIRP[min,rnd,black]
EIF
ELSE
SWAP
POP
PUSHB_1
 5
CALL
IF
PUSHB_1
 70
SROUND
EIF
IF
MDRP[rp0,min,rnd,black]
ELSE
MDRP[min,rnd,black]
EIF
EIF
EIF
RTG
ENDF
PUSHB_1
 5
FDEF
GFV
NOT
AND
ENDF
PUSHB_1
 6
FDEF
PUSHB_2
 34
 1
GETINFO
LT
IF
PUSHB_1
 32
GETINFO
NOT
NOT
ELSE
PUSHB_1
 0
EIF
ENDF
PUSHB_1
 7

StartChar: .notdef
Encoding: 65536 -1 0
Width: 364
GlyphClass: 1
Flags: W
LayerCount: 2
Fore
SplineSet
33 0 m 1,0,-1
 33 666 l 1,1,-1
 298 666 l 1,2,-1
 298 0 l 1,3,-1
 33 0 l 1,0,-1
66 33 m 1,4,-1
 265 33 l 1,5,-1
 265 633 l 1,6,-1
 66 633 l 1,7,-1
 66 33 l 1,4,-1
EndSplineSet
Validated: 1
EndChar

StartChar: quotesingle
Encoding: 39 39 6
Width: 670
GlyphClass: 1
Flags: W
LayerCount: 2
Fore
SplineSet
276 675 m 2,0,1
 281 681 281 681 450 681 c 2,2,-1
 619 681 l 1,3,-1
 506 494 l 2,4,5
 393 306 393 306 393 297 c 0,6,7
 393 286 393 286 505 102 c 2,8,-1
 618 -84 l 1,9,-1
 453 -86 l 1,10,-1
 378 -86 l 2,11,12
 283 -86 283 -86 281 -85 c 0,13,14
 275 -83 275 -83 246 -32 c 0,15,16
 219 16 219 16 172 91.5 c 128,-1,17
 125 167 125 167 99 211 c 0,18,19
 50 293 50 293 50 302 c 0,20,21
 50 306 50 306 53 309 c 0,22,23
 60 318 60 318 166 493 c 2,24,-1
 276 675 l 2,0,1
EndSplineSet
Validated: 1
EndChar

StartChar: comma
Encoding: 44 44 7
Width: 507
GlyphClass: 1
Flags: W
LayerCount: 2
Fore
SplineSet
277 297 m 0,0,1
 277 301 277 301 166 489 c 128,-1,2
 55 677 55 677 55 681 c 0,3,4
 55 687 55 687 137 687 c 2,5,-1
 219 687 l 1,6,-1
 250 637 l 2,7,8
 257 625 257 625 275.5 594 c 128,-1,9
 294 563 294 563 320.5 518 c 128,-1,10
 347 473 347 473 366 441 c 2,11,-1
 452 296 l 1,12,13
 375 169 375 169 223 -87 c 1,14,-1
 139 -87 l 2,15,16
 55 -87 55 -87 55 -82 c 0,17,18
 55 -78 55 -78 166 108 c 128,-1,19
 277 294 277 294 277 297 c 0,0,1
EndSplineSet
Validated: 1
EndChar

StartChar: period
Encoding: 46 46 8
Width: 549
GlyphClass: 1
Flags: W
LayerCount: 2
Fore
SplineSet
220 688 m 0,0,1
 220 691 220 691 249 691 c 2,2,-1
 267 691 l 1,3,-1
 315 689 l 1,4,-1
 370 568 l 2,5,6
 417 465 417 465 448 399 c 128,-1,7
 479 333 479 333 479 332 c 2,8,-1
 494 300 l 1,9,-1
 480 270 l 2,10,11
 476 263 476 263 469.5 248.5 c 128,-1,12
 463 234 463 234 454 214 c 128,-1,13
 445 194 445 194 439 182 c 2,14,-1
 411 122 l 1,15,-1
 406 111 l 2,16,17
 401 100 401 100 379.5 55 c 128,-1,18
 358 10 358 10 330 -48 c 2,19,-1
 313 -86 l 1,20,-1
 268 -89 l 2,21,22
 238 -91 238 -91 231 -91 c 0,23,24
 222 -91 222 -91 221 -90 c 128,-1,25
 220 -89 220 -89 220 -88 c 0,26,27
 220 -81 220 -81 261 9 c 0,28,29
 265 17 265 17 278.5 48.5 c 128,-1,30
 292 80 292 80 304.5 107 c 128,-1,31
 317 134 317 134 323 143 c 0,32,33
 327 149 327 149 361 224 c 2,34,-1
 396 301 l 1,35,-1
 335 433 l 2,36,37
 266 585 266 585 248 624 c 0,38,39
 220 684 220 684 220 688 c 0,0,1
55 690 m 0,40,41
 55 692 55 692 102 692 c 2,42,-1
 148 692 l 1,43,-1
 172 642 l 2,44,45
 181 622 181 622 206.5 565.5 c 128,-1,46
 232 509 232 509 271 426 c 0,47,48
 326 308 326 308 326 304 c 0,49,50
 326 291 326 291 274 182 c 0,51,52
 220 69 220 69 220 62 c 0,53,54
 220 58 220 58 184 -16 c 2,55,-1
 148 -92 l 1,56,-1
 101 -92 l 2,57,58
 55 -92 55 -92 55 -89 c 128,-1,59
 55 -86 55 -86 113 40 c 128,-1,60
 171 166 171 166 176 176 c 0,61,62
 185 197 185 197 207 244 c 0,63,64
 230 294 230 294 230 299 c 0,65,66
 230 305 230 305 210 349 c 2,67,-1
 189 395 l 1,68,-1
 165 447 l 2,69,70
 55 681 55 681 55 690 c 0,40,41
EndSplineSet
Validated: 1
EndChar

StartChar: colon
Encoding: 58 58 9
Width: 1007
GlyphClass: 1
Flags: W
LayerCount: 2
Fore
SplineSet
854 306 m 0,0,1
 854 314 854 314 769 501 c 128,-1,2
 684 688 684 688 684 691 c 0,3,4
 684 697 684 697 728 697 c 2,5,-1
 771 697 l 1,6,-1
 802 632 l 2,7,8
 833 566 833 566 833 565 c 0,9,10
 833 562 833 562 854 518 c 0,11,12
 860 504 860 504 882.5 456 c 128,-1,13
 905 408 905 408 914 388 c 2,14,-1
 952 304 l 1,15,-1
 944 285 l 2,16,17
 925 246 925 246 890.5 170.5 c 128,-1,18
 856 95 856 95 841 65 c 0,19,20
 835 51 835 51 818.5 16 c 128,-1,21
 802 -19 802 -19 797 -30 c 0,22,23
 776 -74 776 -74 775 -75 c 0,24,25
 771 -82 771 -82 725 -82 c 0,26,27
 684 -82 684 -82 684 -76 c 0,28,29
 684 -72 684 -72 714 -5 c 0,30,31
 731 32 731 32 765 106.5 c 128,-1,32
 799 181 799 181 823 230 c 0,33,34
 854 292 854 292 854 306 c 0,0,1
529 690 m 0,35,36
 529 696 529 696 554 696 c 2,37,-1
 574 696 l 1,38,-1
 618 694 l 1,39,-1
 693 532 l 2,40,41
 759 388 759 388 782 337 c 2,42,-1
 797 305 l 1,43,-1
 781 270 l 2,44,45
 762 229 762 229 713 123 c 128,-1,46
 664 17 664 17 637 -39 c 2,47,-1
 617 -81 l 1,48,-1
 573 -81 l 2,49,50
 529 -81 529 -81 529 -74 c 0,51,52
 529 -68 529 -68 560 -4 c 0,53,54
 697 285 697 285 697 311 c 0,55,56
 697 316 697 316 673 371 c 0,57,58
 656 405 656 405 630 465 c 0,59,60
 609 512 609 512 549 639 c 0,61,62
 529 683 529 683 529 690 c 0,35,36
369 695 m 0,63,64
 369 697 369 697 416 697 c 0,65,66
 450 697 450 697 457 695.5 c 128,-1,67
 464 694 464 694 467 686 c 0,68,69
 468 683 468 683 550.5 501 c 128,-1,70
 633 319 633 319 635 316 c 0,71,72
 637 312 637 312 637 308 c 0,73,74
 637 293 637 293 600 215 c 0,75,76
 571 153 571 153 546.5 101 c 128,-1,77
 522 49 522 49 502 4 c 2,78,-1
 463 -79 l 1,79,-1
 416 -80 l 2,80,81
 409 -80 409 -80 397.5 -80.5 c 128,-1,82
 386 -81 386 -81 383 -81 c 2,83,-1
 369 -80 l 1,84,-1
 376 -64 l 2,85,86
 384 -48 384 -48 399 -16 c 128,-1,87
 414 16 414 16 427 45 c 0,88,89
 545 298 545 298 545 307 c 0,90,91
 545 315 545 315 503 404 c 0,92,93
 452 513 452 513 405 616 c 0,94,95
 369 692 369 692 369 695 c 0,63,64
215 695 m 0,96,97
 215 697 215 697 261 697 c 2,98,-1
 306 697 l 1,99,-1
 349 603 l 2,100,101
 362 576 362 576 410 471 c 128,-1,102
 458 366 458 366 476 327 c 0,103,104
 483 311 483 311 483 304 c 0,105,106
 483 295 483 295 458 243 c 0,107,108
 451 227 451 227 435.5 194.5 c 128,-1,109
 420 162 420 162 416 153 c 0,110,111
 367 42 367 42 315 -62 c 2,112,-1
 306 -81 l 1,113,-1
 260 -81 l 2,114,115
 215 -81 215 -81 215 -78 c 0,116,117
 215 -67 215 -67 333 179 c 0,118,119
 373 264 373 264 377 273 c 2,120,-1
 392 305 l 1,121,-1
 381 329 l 2,122,123
 371 354 371 354 318 468 c 0,124,125
 215 691 215 691 215 695 c 0,96,97
55 690 m 0,126,127
 55 696 55 696 79 696 c 2,128,-1
 99 696 l 1,129,-1
 144 694 l 1,130,-1
 186 602 l 2,131,132
 201 568 201 568 290 376 c 2,133,-1
 323 305 l 1,134,-1
 285 224 l 2,135,136
 273 198 273 198 249.5 147 c 128,-1,137
 226 96 226 96 224 91 c 0,138,139
 217 75 217 75 197 33.5 c 128,-1,140
 177 -8 177 -8 171 -21 c 2,141,-1
 143 -81 l 1,142,-1
 99 -81 l 2,143,144
 55 -81 55 -81 55 -79 c 0,145,146
 55 -78 55 -78 64.5 -56 c 128,-1,147
 74 -34 74 -34 74 -32 c 0,148,149
 74 -18 74 -18 185 212 c 0,150,151
 190 222 190 222 197 236.5 c 128,-1,152
 204 251 204 251 207 258 c 128,-1,153
 210 265 210 265 213.5 273.5 c 128,-1,154
 217 282 217 282 218.5 288.5 c 128,-1,155
 220 295 220 295 220 302 c 128,-1,156
 220 309 220 309 218 317 c 128,-1,157
 216 325 216 325 214 332 c 128,-1,158
 212 339 212 339 206 353 c 128,-1,159
 200 367 200 367 195 377.5 c 128,-1,160
 190 388 190 388 180 410 c 128,-1,161
 170 432 170 432 162 449 c 0,162,163
 92 601 92 601 76 637 c 0,164,165
 55 681 55 681 55 690 c 0,126,127
EndSplineSet
Validated: 1
EndChar

StartChar: A
Encoding: 65 65 10
Width: 709
GlyphClass: 1
Flags: W
LayerCount: 2
Fore
SplineSet
190 225 m 0,0,1
 190 227 190 227 210.5 234 c 128,-1,2
 231 241 231 241 231 244 c 128,-1,3
 231 247 231 247 185.5 308 c 128,-1,4
 140 369 140 369 140 370 c 0,5,6
 139 374 139 374 142.5 375.5 c 128,-1,7
 146 377 146 377 158 377 c 0,8,9
 185 377 185 377 185 387 c 0,10,11
 185 398 185 398 163 424 c 0,12,13
 137 455 137 455 96.5 508.5 c 128,-1,14
 56 562 56 562 56 565 c 128,-1,15
 56 568 56 568 66 568 c 0,16,17
 85 568 85 568 107 560 c 0,18,19
 124 553 124 553 167 551 c 2,20,-1
 207 550 l 1,21,-1
 218 571 l 2,22,23
 229 589 229 589 240 608 c 0,24,25
 251 633 251 633 265 633 c 0,26,27
 267 633 267 633 275 631 c 0,28,29
 285 628 285 628 290 621.5 c 128,-1,30
 295 615 295 615 299.5 600 c 128,-1,31
 304 585 304 585 306 581 c 0,32,33
 309 575 309 575 317 547.5 c 128,-1,34
 325 520 325 520 329 514 c 0,35,36
 330 513 330 513 336 498 c 128,-1,37
 342 483 342 483 347.5 469 c 128,-1,38
 353 455 353 455 355 455 c 0,39,40
 360 455 360 455 374 474 c 0,41,42
 389 492 389 492 445 578 c 128,-1,43
 501 664 501 664 505 673 c 0,44,45
 508 681 508 681 521 681 c 0,46,47
 535 681 535 681 542.5 669.5 c 128,-1,48
 550 658 550 658 556 630 c 0,49,50
 562 600 562 600 567 592 c 128,-1,51
 572 584 572 584 586 584 c 0,52,53
 601 584 601 584 624 577 c 2,54,-1
 647 571 l 1,55,-1
 570 478 l 2,56,57
 486 376 486 376 478 366 c 2,58,-1
 463 348 l 1,59,-1
 501 319 l 2,60,61
 541 287 541 287 545 285 c 0,62,63
 552 280 552 280 540 260 c 0,64,65
 527 240 527 240 530 237 c 0,66,67
 572 203 572 203 612 167 c 128,-1,68
 652 131 652 131 652 127 c 0,69,70
 651 126 651 126 647.5 126 c 128,-1,71
 644 126 644 126 638.5 128 c 128,-1,72
 633 130 633 130 630 132 c 0,73,74
 615 140 615 140 596 143 c 0,75,76
 578 146 578 146 574 151 c 0,77,78
 572 154 572 154 549 158 c 0,79,80
 529 161 529 161 518 167 c 0,81,82
 511 171 511 171 475 181.5 c 128,-1,83
 439 192 439 192 434 192 c 0,84,85
 432 192 432 192 432 188 c 0,86,87
 432 178 432 178 440 160 c 0,88,89
 441 159 441 159 441 157 c 0,90,91
 441 151 441 151 426.5 145.5 c 128,-1,92
 412 140 412 140 412 136 c 0,93,94
 412 129 412 129 446 37.5 c 128,-1,95
 480 -54 480 -54 484 -58 c 0,96,97
 489 -63 489 -63 489 -76 c 0,98,99
 489 -87 489 -87 485 -87 c 0,100,101
 472 -87 472 -87 317 83 c 0,102,103
 190 221 190 221 190 225 c 0,0,1
EndSplineSet
Validated: 1
EndChar

StartChar: B
Encoding: 66 66 11
Width: 564
GlyphClass: 1
Flags: W
LayerCount: 2
Fore
SplineSet
52 291 m 1,0,-1
 50 522 l 1,1,-1
 127 522 l 1,2,-1
 129 302 l 2,3,4
 131 131 131 131 132 102.5 c 128,-1,5
 133 74 133 74 142 55 c 0,6,7
 159 17 159 17 188.5 -1.5 c 128,-1,8
 218 -20 218 -20 267 -23 c 0,9,10
 271 -23 271 -23 277 -23.5 c 128,-1,11
 283 -24 283 -24 286 -24 c 0,12,13
 374 -24 374 -24 409 43 c 2,14,-1
 424 71 l 1,15,-1
 426 296 l 1,16,-1
 427 522 l 1,17,-1
 514 522 l 1,18,-1
 514 313 l 2,19,20
 514 105 514 105 510 102 c 128,-1,21
 506 99 506 99 502 76 c 0,22,23
 497 49 497 49 478 13 c 128,-1,24
 459 -23 459 -23 441 -38 c 0,25,26
 379 -91 379 -91 281 -91 c 0,27,28
 242 -91 242 -91 202 -82 c 0,29,30
 160 -73 160 -73 123.5 -42 c 128,-1,31
 87 -11 87 -11 67 31 c 2,32,-1
 53 60 l 1,33,-1
 52 291 l 1,0,-1
427 594 m 1,34,-1
 427 682 l 1,35,-1
 470 680 l 1,36,-1
 512 679 l 1,37,-1
 513 644 l 1,38,-1
 513 628 l 2,39,40
 513 605 513 605 504.5 599.5 c 128,-1,41
 496 594 496 594 465 594 c 2,42,-1
 427 594 l 1,34,-1
51 593 m 1,43,-1
 51 681 l 1,44,-1
 128 681 l 1,45,-1
 127 639 l 1,46,-1
 125 596 l 1,47,-1
 88 595 l 1,48,-1
 51 593 l 1,43,-1
EndSplineSet
Validated: 1
EndChar

StartChar: C
Encoding: 67 67 12
Width: 832
GlyphClass: 1
Flags: W
LayerCount: 2
Fore
SplineSet
340 311 m 0,0,1
 303 351 303 351 294 353 c 2,2,-1
 292 353 l 2,3,4
 282 353 282 353 252 338 c 128,-1,5
 222 323 222 323 208 311 c 0,6,7
 196 301 196 301 160 277 c 0,8,9
 135 260 135 260 125.5 251 c 128,-1,10
 116 242 116 242 116 233 c 0,11,12
 116 228 116 228 121 216 c 0,13,14
 131 195 131 195 168.5 145.5 c 128,-1,15
 206 96 206 96 238 63 c 2,16,-1
 277 22 l 1,17,-1
 305 22 l 2,18,19
 322 22 322 22 329 23 c 128,-1,20
 336 24 336 24 345.5 29 c 128,-1,21
 355 34 355 34 363 37 c 0,22,23
 382 44 382 44 420 67 c 128,-1,24
 458 90 458 90 469 102 c 2,25,-1
 482 115 l 1,26,-1
 465 147 l 2,27,28
 449 179 449 179 438 192 c 0,29,30
 375 273 375 273 340 311 c 0,0,1
286 671 m 128,-1,32
 289 676 289 676 321 676 c 0,33,34
 382 676 382 676 388 639 c 0,35,36
 389 635 389 635 389 629 c 0,37,38
 389 616 389 616 380 616 c 0,39,40
 374 616 374 616 367 619 c 0,41,42
 361 621 361 621 358 621 c 0,43,44
 346 621 346 621 300 590 c 0,45,46
 249 555 249 555 240 536 c 0,47,48
 233 518 233 518 233 516 c 0,49,50
 233 513 233 513 240 499 c 0,51,52
 248 484 248 484 279.5 460 c 128,-1,53
 311 436 311 436 338 424 c 0,54,55
 381 405 381 405 461 302 c 128,-1,56
 541 199 541 199 544 159 c 0,57,58
 546 139 546 139 556.5 107.5 c 128,-1,59
 567 76 567 76 575 67 c 0,60,61
 581 61 581 61 585 61 c 0,62,63
 597 61 597 61 599 92 c 0,64,65
 601 112 601 112 611.5 120 c 128,-1,66
 622 128 622 128 682 156 c 0,67,68
 716 172 716 172 716 177 c 0,69,70
 716 181 716 181 734 185 c 0,71,72
 736 185 736 185 739 185.5 c 128,-1,73
 742 186 742 186 743 186 c 0,74,75
 754 186 754 186 766 179 c 0,76,77
 778 171 778 171 778 157 c 0,78,79
 778 155 778 155 776 129 c 0,80,81
 772 88 772 88 765 73 c 0,82,83
 757 57 757 57 757 48 c 0,84,85
 757 38 757 38 737 19 c 128,-1,86
 717 0 717 0 698 -9 c 0,87,88
 671 -21 671 -21 600 -51 c 0,89,90
 528 -82 528 -82 497 -82 c 2,91,-1
 487 -82 l 2,92,93
 451 -80 451 -80 443 -74 c 128,-1,94
 435 -68 435 -68 422 -64 c 0,95,96
 408 -60 408 -60 389 -48 c 0,97,98
 370 -35 370 -35 368 -35 c 0,99,100
 365 -35 365 -35 338 -17 c 0,101,102
 313 1 313 1 299 1 c 0,103,104
 284 1 284 1 269 13 c 0,105,106
 249 28 249 28 206 77.5 c 128,-1,107
 163 127 163 127 136 166 c 0,108,109
 101 216 101 216 98 246 c 0,110,111
 92 283 92 283 83 304 c 0,112,113
 73 332 73 332 73 337 c 0,114,115
 73 349 73 349 66 362 c 0,116,117
 53 393 53 393 53 407 c 0,118,119
 53 414 53 414 56 416 c 0,120,121
 62 420 62 420 59 433 c 0,122,123
 59 434 59 434 58.5 436 c 128,-1,124
 58 438 58 438 58 439 c 0,125,126
 58 452 58 452 66 466 c 0,127,128
 74 482 74 482 74 492 c 0,129,130
 74 493 74 493 73.5 495 c 128,-1,131
 73 497 73 497 73 498 c 0,132,133
 73 508 73 508 103 538 c 0,134,135
 140 574 140 574 200 620 c 128,-1,136
 260 666 260 666 271 666 c 0,137,31
 283 666 283 666 286 671 c 128,-1,32
EndSplineSet
Validated: 1
EndChar

StartChar: D
Encoding: 68 68 13
Width: 867
GlyphClass: 1
Flags: W
LayerCount: 2
Fore
SplineSet
415 321 m 0,0,1
 424 330 424 330 435 330 c 0,2,3
 450 330 450 330 457 318 c 0,4,5
 462 310 462 310 462 302 c 0,6,7
 462 289 462 289 447 280 c 0,8,9
 441 277 441 277 435 277 c 0,10,11
 424 277 424 277 416 285.5 c 128,-1,12
 408 294 408 294 408 304 c 128,-1,13
 408 314 408 314 415 321 c 0,0,1
419 474 m 1,14,-1
 418 563 l 1,15,-1
 404 562 l 2,16,17
 350 560 350 560 288 516 c 128,-1,18
 226 472 226 472 201 417 c 0,19,20
 179 368 179 368 179 334 c 0,21,22
 179 329 179 329 180 327 c 0,23,24
 182 321 182 321 266 321 c 0,25,26
 322 321 322 321 337 319 c 128,-1,27
 352 317 352 317 356 311 c 0,28,29
 359 306 359 306 359 302 c 0,30,31
 359 294 359 294 341.5 292 c 128,-1,32
 324 290 324 290 268 290 c 0,33,34
 188 290 188 290 183 285 c 0,35,36
 180 282 180 282 180 272 c 0,37,38
 180 241 180 241 203 193 c 0,39,40
 218 162 218 162 251 126.5 c 128,-1,41
 284 91 284 91 313 76 c 0,42,43
 334 66 334 66 365 56.5 c 128,-1,44
 396 47 396 47 409 47 c 0,45,46
 416 47 416 47 417 59.5 c 128,-1,47
 418 72 418 72 418 132 c 0,48,49
 418 216 418 216 426 223 c 128,-1,50
 434 230 434 230 443 224 c 0,51,52
 449 220 449 220 450 206.5 c 128,-1,53
 451 193 451 193 453 133 c 0,54,55
 454 59 454 59 460 52 c 0,56,57
 464 48 464 48 469 48 c 256,58,59
 474 48 474 48 502 55 c 0,60,61
 571 73 571 73 622 125 c 128,-1,62
 673 177 673 177 689 245 c 0,63,64
 694 264 694 264 694 276 c 0,65,66
 694 283 694 283 690 286 c 0,67,68
 684 288 684 288 638 288 c 2,69,-1
 605 288 l 2,70,71
 598 288 598 288 586 287.5 c 128,-1,72
 574 287 574 287 569 287 c 0,73,74
 511 287 511 287 511 303 c 0,75,76
 511 304 511 304 511.5 305.5 c 128,-1,77
 512 307 512 307 512 308 c 0,78,79
 514 315 514 315 527 317 c 128,-1,80
 540 319 540 319 601 320 c 0,81,82
 690 322 690 322 693 325 c 0,83,84
 694 326 694 326 694 328 c 0,85,86
 694 339 694 339 683 372 c 128,-1,87
 672 405 672 405 660 429 c 0,88,89
 635 480 635 480 576 521 c 128,-1,90
 517 562 517 562 471 563 c 2,91,-1
 454 563 l 1,92,-1
 454 479 l 2,93,94
 454 396 454 396 449 389 c 0,95,96
 446 382 446 382 433 384 c 2,97,-1
 421 385 l 1,98,-1
 419 474 l 1,14,-1
389 686 m 0,99,100
 395 692 395 692 436 692 c 0,101,102
 473 692 473 692 478 686 c 0,103,104
 483 676 483 676 493 651 c 0,105,106
 503 623 503 623 516 616 c 0,107,108
 519 615 519 615 536.5 607 c 128,-1,109
 554 599 554 599 564 594 c 2,110,-1
 598 578 l 1,111,112
 619 588 619 588 661 610 c 1,113,114
 673 598 673 598 698 574 c 128,-1,115
 723 550 723 550 735 538 c 1,116,-1
 721 509 l 2,117,118
 707 479 707 479 707 467 c 0,119,120
 707 461 707 461 711 458 c 128,-1,121
 715 455 715 455 730 416 c 2,122,-1
 744 378 l 1,123,124
 755 374 755 374 777.5 366 c 128,-1,125
 800 358 800 358 812 354 c 1,126,-1
 814 307 l 1,127,-1
 815 261 l 1,128,-1
 798 253 l 2,129,130
 780 243 780 243 765 238 c 0,131,132
 748 231 748 231 742 213 c 0,133,134
 735 191 735 191 724 165 c 2,135,-1
 710 135 l 1,136,-1
 724 107 l 2,137,138
 738 75 738 75 738 74 c 0,139,140
 738 67 738 67 704 36.5 c 128,-1,141
 670 6 670 6 663 6 c 0,142,143
 648 8 648 8 630 19 c 2,144,-1
 607 30 l 1,145,-1
 565 13 l 2,146,147
 556 9 556 9 544 4 c 128,-1,148
 532 -1 532 -1 525 -4 c 128,-1,149
 518 -7 518 -7 516 -8 c 0,150,151
 511 -10 511 -10 498 -43 c 2,152,-1
 487 -74 l 1,153,-1
 384 -74 l 1,154,-1
 372 -39 l 2,155,156
 360 -4 360 -4 351 -4 c 0,157,158
 341 -4 341 -4 304 13 c 2,159,-1
 265 30 l 1,160,-1
 242 19 l 2,161,162
 220 8 220 8 211 8 c 0,163,164
 196 8 196 8 166 39 c 0,165,166
 134 71 134 71 134 75 c 2,167,-1
 148 107 l 1,168,-1
 162 135 l 1,169,-1
 146 170 l 2,170,171
 135 193 135 193 128 218 c 0,172,173
 124 231 124 231 103 238 c 0,174,175
 65 250 65 250 58.5 258.5 c 128,-1,176
 52 267 52 267 52 305 c 0,177,178
 52 347 52 347 56.5 353.5 c 128,-1,179
 61 360 61 360 95 370 c 0,180,181
 124 378 124 378 128 392 c 0,182,183
 134 411 134 411 146 441 c 2,184,-1
 162 476 l 1,185,-1
 148 504 l 2,186,187
 138 526 138 526 138 532 c 0,188,189
 138 546 138 546 175 580 c 2,190,-1
 206 610 l 1,191,192
 217 605 217 605 237.5 594.5 c 128,-1,193
 258 584 258 584 268 578 c 1,194,-1
 298 593 l 2,195,196
 326 607 326 607 344 611 c 0,197,198
 356 614 356 614 361 621 c 128,-1,199
 366 628 366 628 378 662 c 0,200,201
 384 679 384 679 389 686 c 0,99,100
EndSplineSet
Validated: 1
EndChar

StartChar: E
Encoding: 69 69 14
Width: 821
GlyphClass: 1
Flags: W
LayerCount: 2
Fore
SplineSet
167 560 m 0,0,1
 253 577 253 577 283 577 c 0,2,3
 302 577 302 577 306 571 c 0,4,5
 311 564 311 564 328.5 474 c 128,-1,6
 346 384 346 384 347 362 c 0,7,8
 347 347 347 347 339.5 336.5 c 128,-1,9
 332 326 332 326 321 326 c 0,10,11
 313 326 313 326 274 352 c 2,12,-1
 236 377 l 1,13,-1
 227 366 l 2,14,15
 201 334 201 334 201 259 c 0,16,17
 201 225 201 225 209 196 c 0,18,19
 218 167 218 167 241.5 133.5 c 128,-1,20
 265 100 265 100 288 82 c 0,21,22
 348 37 348 37 423 37 c 0,23,24
 485 37 485 37 539.5 68.5 c 128,-1,25
 594 100 594 100 622 156 c 0,26,27
 634 179 634 179 644 223 c 0,28,29
 649 250 649 250 649 260 c 0,30,31
 649 269 649 269 644 297 c 0,32,33
 623 397 623 397 544 448 c 0,34,35
 517 464 517 464 517 472 c 0,36,37
 517 479 517 479 544 516.5 c 128,-1,38
 571 554 571 554 577 556 c 0,39,40
 579 557 579 557 583 557 c 0,41,42
 606 557 606 557 662 501 c 0,43,44
 705 459 705 459 728 413 c 0,45,46
 768 331 768 331 768 252 c 0,47,48
 768 235 768 235 766 229 c 0,49,50
 764 224 764 224 752 174 c 0,51,52
 726 64 726 64 631.5 -8.5 c 128,-1,53
 537 -81 537 -81 424 -81 c 0,54,55
 391 -81 391 -81 354 -73 c 0,56,57
 189 -35 189 -35 118 112 c 0,58,59
 84 184 84 184 84 252 c 0,60,61
 84 256 84 256 84.5 264.5 c 128,-1,62
 85 273 85 273 85 278 c 0,63,64
 89 361 89 361 124 422 c 2,65,-1
 137 444 l 1,66,-1
 112 461 l 2,67,68
 90 475 90 475 69 494 c 0,69,70
 54 506 54 506 54 513 c 0,71,72
 54 518 54 518 58 523 c 0,73,74
 65 536 65 536 78.5 541 c 128,-1,75
 92 546 92 546 167 560 c 0,0,1
365 674 m 128,-1,77
 367 680 367 680 394 680 c 2,78,-1
 428 680 l 1,79,-1
 489 679 l 1,80,-1
 490 612 l 1,81,-1
 490 583 l 2,82,83
 490 516 490 516 486 479 c 2,84,-1
 480 413 l 1,85,-1
 431 413 l 2,86,87
 384 413 384 413 381 420 c 0,88,89
 376 435 376 435 369.5 518.5 c 128,-1,90
 363 602 363 602 363 649 c 0,91,76
 363 668 363 668 365 674 c 128,-1,77
EndSplineSet
Validated: 1
EndChar

StartChar: F
Encoding: 70 70 15
Width: 868
GlyphClass: 1
Flags: W
LayerCount: 2
Fore
SplineSet
264 468 m 1,0,1
 264 504 264 504 265 575 c 128,-1,2
 266 646 266 646 266 681 c 1,3,-1
 596 681 l 1,4,-1
 597 575 l 1,5,-1
 599 468 l 1,6,-1
 709 466 l 1,7,-1
 818 465 l 1,8,-1
 818 303 l 2,9,10
 818 140 818 140 817 139 c 2,11,-1
 803 138 l 2,12,13
 789 138 789 138 760.5 137.5 c 128,-1,14
 732 137 732 137 707 136 c 2,15,-1
 599 132 l 1,16,-1
 596 27 l 1,17,-1
 594 -79 l 1,18,-1
 269 -79 l 1,19,-1
 268 28 l 1,20,-1
 266 135 l 1,21,-1
 159 136 l 1,22,-1
 53 138 l 1,23,-1
 51 301 l 1,24,-1
 50 465 l 1,25,-1
 157 466 l 1,26,-1
 264 468 l 1,0,1
EndSplineSet
Validated: 1
EndChar

StartChar: G
Encoding: 71 71 16
Width: 987
GlyphClass: 1
Flags: W
LayerCount: 2
Fore
SplineSet
705 287 m 0,0,1
 731 313 731 313 738 313 c 128,-1,2
 745 313 745 313 754 285 c 0,3,4
 758 269 758 269 758 267 c 0,5,6
 758 260 758 260 747 246 c 0,7,8
 730 225 730 225 684.5 193 c 128,-1,9
 639 161 639 161 596 140 c 0,10,11
 530 109 530 109 498 99 c 128,-1,12
 466 89 466 89 430 89 c 0,13,14
 389 89 389 89 377 84 c 0,15,16
 374 83 374 83 358.5 77.5 c 128,-1,17
 343 72 343 72 334 68 c 2,18,-1
 305 56 l 1,19,-1
 308 37 l 2,20,21
 312 17 312 17 300 11 c 0,22,23
 283 3 283 3 233.5 -14 c 128,-1,24
 184 -31 184 -31 176 -31 c 2,25,-1
 175 -31 l 1,26,27
 169 -21 169 -21 161 6.5 c 128,-1,28
 153 34 153 34 153 44 c 2,29,-1
 154 47 l 2,30,31
 159 51 159 51 208 65 c 0,32,33
 293 90 293 90 476 157 c 0,34,35
 568 191 568 191 617 219 c 128,-1,36
 666 247 666 247 705 287 c 0,0,1
177 471 m 0,37,38
 236 495 236 495 250 495 c 0,39,40
 260 495 260 495 265 489 c 128,-1,41
 270 483 270 483 277 468 c 0,42,43
 288 444 288 444 312 420.5 c 128,-1,44
 336 397 336 397 361 387 c 0,45,46
 390 374 390 374 444 374 c 0,47,48
 520 374 520 374 557 395 c 0,49,50
 614 427 614 427 633 427 c 0,51,52
 640 427 640 427 651 424 c 0,53,54
 694 413 694 413 713 377 c 2,55,-1
 724 356 l 1,56,-1
 694 325 l 2,57,58
 655 284 655 284 598 252 c 128,-1,59
 541 220 541 220 434 178 c 0,60,61
 219 94 219 94 156 94 c 0,62,63
 138 94 138 94 133 97.5 c 128,-1,64
 128 101 128 101 119 121 c 0,65,66
 109 146 109 146 106 196 c 2,67,-1
 104 243 l 1,68,-1
 141 243 l 2,69,70
 214 243 214 243 266 217 c 0,71,72
 278 211 278 211 282 211 c 0,73,74
 284 211 284 211 284 212 c 0,75,76
 284 218 284 218 258 236 c 0,77,78
 236 251 236 251 195.5 264.5 c 128,-1,79
 155 278 155 278 122 282 c 0,80,81
 95 286 95 286 91 291 c 0,82,83
 88 296 88 296 70.5 347.5 c 128,-1,84
 53 399 53 399 53 403 c 0,85,86
 53 409 53 409 92.5 430.5 c 128,-1,87
 132 452 132 452 177 471 c 0,37,38
625 568 m 0,88,89
 637 578 637 578 656 578 c 2,90,-1
 660 578 l 2,91,92
 672 578 672 578 690 559 c 0,93,94
 721 521 721 521 813 521 c 2,95,-1
 823 521 l 1,96,-1
 879 521 l 1,97,-1
 874 494 l 2,98,99
 870 471 870 471 870 440 c 0,100,101
 870 386 870 386 882 364 c 0,102,103
 889 348 889 348 905.5 331.5 c 128,-1,104
 922 315 922 315 930 315 c 0,105,106
 935 315 935 315 935 301 c 0,107,108
 935 276 935 276 926 272 c 0,109,110
 919 268 919 268 908 245 c 0,111,112
 899 224 899 224 899 205 c 0,113,114
 899 191 899 191 900 181 c 2,115,-1
 904 142 l 1,116,-1
 873 131 l 2,117,118
 852 124 852 124 847 124 c 0,119,120
 838 124 838 124 836 136.5 c 128,-1,121
 834 149 834 149 834 192 c 0,122,123
 834 245 834 245 845 268 c 2,124,-1
 856 290 l 1,125,-1
 844 305 l 2,126,127
 828 324 828 324 815.5 354.5 c 128,-1,128
 803 385 803 385 801 413 c 2,129,-1
 799 447 l 1,130,-1
 761 454 l 2,131,132
 705 463 705 463 666 492 c 0,133,134
 655 500 655 500 650 500 c 0,135,136
 648 500 648 500 625 493 c 0,137,138
 596 483 596 483 544 483 c 0,139,140
 493 483 493 483 489 487 c 0,141,142
 488 488 488 488 488 498 c 0,143,144
 488 513 488 513 489 522 c 2,145,-1
 492 554 l 1,146,-1
 524 551 l 2,147,148
 531 550 531 550 545 550 c 0,149,150
 604 550 604 550 625 568 c 0,88,89
EndSplineSet
Validated: 1
EndChar

StartChar: H
Encoding: 72 72 17
Width: 886
GlyphClass: 1
Flags: W
LayerCount: 2
Fore
SplineSet
356 35 m 0,0,1
 378 41 378 41 383 41 c 0,2,3
 390 41 390 41 412 34 c 0,4,5
 432 28 432 28 442 28 c 0,6,7
 450 28 450 28 482 37 c 0,8,9
 488 39 488 39 502 39 c 0,10,11
 536 39 536 39 583 11 c 0,12,13
 616 -9 616 -9 633 -9 c 0,14,15
 649 -9 649 -9 649 -16 c 0,16,17
 649 -25 649 -25 625 -37 c 0,18,19
 609 -45 609 -45 594 -45 c 0,20,21
 558 -45 558 -45 514 6 c 0,22,23
 496 27 496 27 481 27 c 0,24,25
 472 27 472 27 461 19 c 0,26,27
 451 13 451 13 458 11 c 0,28,29
 467 11 467 11 490.5 -13 c 128,-1,30
 514 -37 514 -37 524 -56 c 0,31,32
 533 -74 533 -74 533 -78 c 128,-1,33
 533 -82 533 -82 528 -84 c 0,34,35
 522 -87 522 -87 518 -87 c 0,36,37
 511 -87 511 -87 501 -64 c 0,38,39
 495 -49 495 -49 468 -18 c 0,40,41
 446 5 446 5 441 5 c 0,42,43
 438 5 438 5 434 2 c 0,44,45
 423 -4 423 -4 402.5 -32 c 128,-1,46
 382 -60 382 -60 378 -73 c 0,47,48
 373 -91 373 -91 356 -81 c 0,49,50
 352 -78 352 -78 352 -75 c 0,51,52
 352 -71 352 -71 361 -53 c 0,53,54
 370 -36 370 -36 387.5 -17 c 128,-1,55
 405 2 405 2 420 10 c 0,56,57
 427 14 427 14 427 17 c 0,58,59
 427 22 427 22 403 25 c 0,60,61
 401 25 401 25 397.5 25.5 c 128,-1,62
 394 26 394 26 393 26 c 0,63,64
 386 26 386 26 382 22.5 c 128,-1,65
 378 19 378 19 370 7 c 0,66,67
 334 -44 334 -44 291 -44 c 0,68,69
 275 -44 275 -44 261 -37 c 0,70,71
 239 -25 239 -25 239 -17 c 128,-1,72
 239 -9 239 -9 256 -9 c 0,73,74
 267 -9 267 -9 301 10 c 0,75,76
 331 29 331 29 356 35 c 0,0,1
621 112 m 0,77,78
 647 125 647 125 651 125 c 0,79,80
 654 125 654 125 654 121 c 0,81,82
 654 104 654 104 631 70 c 0,83,84
 613 43 613 43 613 41 c 0,85,86
 614 40 614 40 617 40 c 0,87,88
 631 40 631 40 668 44.5 c 128,-1,89
 705 49 705 49 715 52 c 0,90,91
 732 57 732 57 732 52 c 0,92,93
 732 45 732 45 707.5 23 c 128,-1,94
 683 1 683 1 676 1 c 128,-1,95
 669 1 669 1 613 19.5 c 128,-1,96
 557 38 557 38 557 42 c 0,97,98
 557 47 557 47 566 62.5 c 128,-1,99
 575 78 575 78 584 88 c 0,100,101
 592 98 592 98 621 112 c 0,77,78
234 111 m 0,102,103
 231 124 231 124 236 124 c 0,104,105
 238 124 238 124 243 122 c 0,106,107
 282 109 282 109 302 88 c 0,108,109
 330 55 330 55 330 43 c 1,110,-1
 329 41 l 2,111,112
 325 37 325 37 271.5 19 c 128,-1,113
 218 1 218 1 211 1 c 128,-1,114
 204 1 204 1 179.5 23 c 128,-1,115
 155 45 155 45 155 52 c 0,116,117
 155 57 155 57 172 52 c 0,118,119
 182 49 182 49 218.5 44.5 c 128,-1,120
 255 40 255 40 269 40 c 2,121,-1
 273 41 l 2,122,123
 273 44 273 44 256 70 c 0,124,125
 238 95 238 95 234 111 c 0,102,103
694 222 m 0,126,127
 701 232 701 232 705 232 c 0,128,129
 710 232 710 232 713 217 c 0,130,131
 717 191 717 191 717 181 c 0,132,133
 717 148 717 148 702 118 c 0,134,135
 691 96 691 96 691 92 c 0,136,137
 691 90 691 90 693 90 c 0,138,139
 696 90 696 90 708 99 c 0,140,141
 716 106 716 106 743.5 119.5 c 128,-1,142
 771 133 771 133 778 140 c 0,143,144
 789 151 789 151 789 144 c 0,145,146
 790 140 790 140 790 133 c 0,147,148
 790 96 790 96 759 81 c 0,149,150
 731 65 731 65 680 65 c 0,151,152
 678 65 678 65 674 65.5 c 128,-1,153
 670 66 670 66 669 66 c 2,154,-1
 650 69 l 1,155,-1
 663 92 l 2,156,157
 675 114 675 114 675 140 c 0,158,159
 677 196 677 196 694 222 c 0,126,127
173 217 m 0,160,161
 176 231 176 231 182 231 c 0,162,163
 190 231 190 231 198.5 207 c 128,-1,164
 207 183 207 183 211 149 c 0,165,166
 216 103 216 103 226 87 c 2,167,-1
 237 70 l 1,168,-1
 216 66 l 1,169,-1
 206 66 l 2,170,171
 152 66 152 66 121 86 c 0,172,173
 96 104 96 104 96 131 c 0,174,175
 96 136 96 136 97 138 c 0,176,177
 99 149 99 149 107 141 c 0,178,179
 108 140 108 140 109 139 c 0,180,181
 116 132 116 132 144 118.5 c 128,-1,182
 172 105 172 105 179 99 c 0,183,184
 191 90 191 90 194 90 c 0,185,186
 195 90 195 90 195 92 c 0,187,188
 195 96 195 96 184 118 c 0,189,190
 169 148 169 148 169 181 c 0,191,192
 169 191 169 191 173 217 c 0,160,161
513 290 m 0,193,194
 522 299 522 299 533 299 c 0,195,196
 535 299 535 299 559 297 c 0,197,198
 602 293 602 293 608 290 c 0,199,200
 610 289 610 289 626 286 c 128,-1,201
 642 283 642 283 656 279.5 c 128,-1,202
 670 276 670 276 670 273 c 0,203,204
 670 271 670 271 653 235 c 0,205,206
 641 210 641 210 613.5 180.5 c 128,-1,207
 586 151 586 151 575 151 c 0,208,209
 568 151 568 151 566 145 c 0,210,211
 563 136 563 136 522.5 125 c 128,-1,212
 482 114 482 114 451 114 c 2,213,-1
 411 114 l 1,214,-1
 414 131 l 2,215,216
 424 174 424 174 432 230 c 0,217,218
 435 249 435 249 438 253 c 128,-1,219
 441 257 441 257 455 260 c 0,220,221
 492 267 492 267 513 290 c 0,193,194
725 292 m 2,222,-1
 728 328 l 1,223,-1
 741 301 l 2,224,225
 760 260 760 260 760 230 c 0,226,227
 760 213 760 213 756 197 c 0,228,229
 754 186 754 186 754.5 185 c 128,-1,230
 755 184 755 184 759 188 c 0,231,232
 772 201 772 201 793 228 c 128,-1,233
 814 255 814 255 819 266 c 2,234,-1
 826 282 l 1,235,-1
 830 269 l 2,236,237
 835 251 835 251 835 239 c 0,238,239
 835 214 835 214 817 195 c 128,-1,240
 799 176 799 176 757 155 c 0,241,242
 726 141 726 141 725 141 c 128,-1,243
 724 141 724 141 724 142 c 0,244,245
 724 144 724 144 727 150 c 0,246,247
 732 158 732 158 732 190 c 0,248,249
 732 223 732 223 727 238 c 0,250,251
 724 247 724 247 724 266 c 0,252,253
 724 283 724 283 725 292 c 2,222,-1
145 301 m 2,254,-1
 157 328 l 1,255,-1
 161 297 l 2,256,257
 163 279 163 279 163 270 c 0,258,259
 163 255 163 255 160 242 c 0,260,261
 155 222 155 222 155 189 c 0,262,263
 155 158 155 158 160 150 c 0,264,265
 163 144 163 144 163 142 c 0,266,267
 163 141 163 141 162 141 c 0,268,269
 158 141 158 141 128 156 c 0,270,271
 86 177 86 177 68.5 196 c 128,-1,272
 51 215 51 215 51 239 c 0,273,274
 51 251 51 251 56 269 c 2,275,-1
 60 282 l 1,276,-1
 67 266 l 2,277,278
 72 256 72 256 93 229 c 128,-1,279
 114 202 114 202 127 188 c 0,280,281
 132 183 132 183 132 188 c 0,282,283
 132 191 132 191 130 201 c 0,284,285
 127 219 127 219 127 233 c 0,286,287
 127 261 127 261 145 301 c 2,254,-1
202 333 m 2,288,-1
 199 379 l 1,289,-1
 230 375 l 2,290,291
 237 374 237 374 257.5 372 c 128,-1,292
 278 370 278 370 286 369 c 0,293,294
 333 364 333 364 343 360 c 128,-1,295
 353 356 353 356 357 340 c 0,296,297
 366 296 366 296 397 276 c 0,298,299
 405 271 405 271 408.5 268 c 128,-1,300
 412 265 412 265 414.5 259 c 128,-1,301
 417 253 417 253 417 244 c 0,302,303
 417 234 417 234 412 189 c 0,304,305
 407 143 407 143 402.5 129.5 c 128,-1,306
 398 116 398 116 388 116 c 0,307,308
 383 116 383 116 380 117 c 0,309,310
 334 126 334 126 291.5 162 c 128,-1,311
 249 198 249 198 225 247 c 0,312,313
 212 272 212 272 208 287 c 128,-1,314
 204 302 204 302 202 333 c 2,288,-1
811 415 m 2,315,-1
 817 440 l 1,316,-1
 824 423 l 2,317,318
 835 396 835 396 835 373 c 0,319,320
 835 329 835 329 801 287 c 0,321,322
 782 264 782 264 776 264 c 0,323,324
 773 264 773 264 773 272 c 0,325,326
 773 282 773 282 750 330 c 0,327,328
 727 379 727 379 727 395 c 0,329,330
 727 403 727 403 730 412 c 0,331,332
 732 417 732 417 733 417 c 0,333,334
 736 417 736 417 753 392 c 0,335,336
 773 362 773 362 780 345 c 2,337,-1
 787 328 l 1,338,-1
 796 359 l 2,339,340
 798 367 798 367 803.5 387.5 c 128,-1,341
 809 408 809 408 811 415 c 2,315,-1
60 414 m 2,342,-1
 68 442 l 1,343,-1
 76 413 l 2,344,345
 91 358 91 358 91 357 c 2,346,-1
 99 328 l 1,347,-1
 108 349 l 2,348,349
 117 369 117 369 135 396 c 0,350,351
 150 418 150 418 153 418 c 128,-1,352
 156 418 156 418 157 412 c 0,353,354
 159 406 159 406 159 396 c 0,355,356
 159 377 159 377 136 330 c 0,357,358
 113 282 113 282 113 272 c 0,359,360
 113 264 113 264 110 264 c 0,361,362
 105 264 105 264 86 287 c 0,363,364
 53 326 53 326 53 368 c 0,365,366
 53 390 53 390 60 414 c 2,342,-1
760 554 m 0,367,368
 759 558 759 558 759 562 c 0,369,370
 759 567 759 567 762 567 c 0,371,372
 768 567 768 567 788 548 c 0,373,374
 809 529 809 529 809 516 c 0,375,376
 809 493 809 493 785 404 c 0,377,378
 785 403 785 403 783 403 c 0,379,380
 777 403 777 403 753 427 c 0,381,382
 729 452 729 452 707 472 c 0,383,384
 684 493 684 493 684 509 c 0,385,386
 684 512 684 512 686 514 c 0,387,388
 687 515 687 515 689 515 c 0,389,390
 697 515 697 515 717 501.5 c 128,-1,391
 737 488 737 488 749 475 c 0,392,393
 769 454 769 454 772 457 c 0,394,395
 773 459 773 459 773 462 c 0,396,397
 773 502 773 502 760 554 c 0,367,368
99 548 m 0,398,399
 119 567 119 567 125 567 c 0,400,401
 128 567 128 567 128 562 c 0,402,403
 128 558 128 558 127 554 c 0,404,405
 114 502 114 502 114 462 c 1,406,-1
 115 457 l 2,407,408
 118 454 118 454 137 475 c 0,409,410
 149 488 149 488 169 501.5 c 128,-1,411
 189 515 189 515 197 515 c 0,412,413
 199 515 199 515 200 514 c 0,414,415
 202 512 202 512 202 509 c 0,416,417
 202 493 202 493 179 472 c 0,418,419
 157 452 157 452 133 427 c 0,420,421
 109 403 109 403 103 403 c 0,422,423
 101 403 101 403 101 404 c 0,424,425
 77 493 77 493 77 516 c 0,426,427
 77 528 77 528 99 548 c 0,398,399
482 564 m 0,428,429
 486 583 486 583 498 583 c 0,430,431
 503 583 503 583 523 578 c 0,432,433
 542 573 542 573 576.5 550.5 c 128,-1,434
 611 528 611 528 626 511 c 0,435,436
 645 489 645 489 664.5 442 c 128,-1,437
 684 395 684 395 684 371 c 2,438,-1
 684 366 l 2,439,440
 683 358 683 358 679.5 356 c 128,-1,441
 676 354 676 354 665 356 c 0,442,443
 649 357 649 357 621 362.5 c 128,-1,444
 593 368 593 368 572 370 c 2,445,-1
 533 373 l 1,446,-1
 525 393 l 2,447,448
 517 411 517 411 492 427 c 2,449,-1
 468 442 l 1,450,-1
 472 480 l 2,451,452
 477 538 477 538 482 564 c 0,428,429
400 588 m 0,453,454
 405 589 405 589 450 593 c 1,455,-1
 458 593 l 2,456,457
 466 593 466 593 467.5 590 c 128,-1,458
 469 587 469 587 469 575 c 0,459,460
 469 557 469 557 460.5 506.5 c 128,-1,461
 452 456 452 456 447 448 c 0,462,463
 442 439 442 439 426 439 c 0,464,465
 408 439 408 439 390.5 426.5 c 128,-1,466
 373 414 373 414 364 394 c 2,467,-1
 353 372 l 1,468,-1
 322 375 l 2,469,470
 273 381 273 381 249 386 c 0,471,472
 223 391 223 391 215 394.5 c 128,-1,473
 207 398 207 398 207 407 c 0,474,475
 207 418 207 418 227 458 c 0,476,477
 253 511 253 511 299 545.5 c 128,-1,478
 345 580 345 580 400 588 c 0,453,454
179 631 m 0,479,480
 201 644 201 644 206 644 c 0,481,482
 208 644 208 644 208 642 c 0,483,484
 208 638 208 638 201 627 c 0,485,486
 166 569 166 569 166 549 c 0,487,488
 166 547 166 547 167 547 c 0,489,490
 170 547 170 547 197 566.5 c 128,-1,491
 224 586 224 586 236 596 c 0,492,493
 246 602 246 602 247 597 c 0,494,495
 247 585 247 585 238.5 569 c 128,-1,496
 230 553 230 553 221 549 c 0,497,498
 218 547 218 547 212.5 545 c 128,-1,499
 207 543 207 543 199 540 c 128,-1,500
 191 537 191 537 187 535 c 0,501,502
 168 527 168 527 157 516 c 0,503,504
 150 507 150 507 146 507 c 0,505,506
 141 507 141 507 141 524 c 0,507,508
 141 538 141 538 142 549 c 0,509,510
 146 592 146 592 152 605.5 c 128,-1,511
 158 619 158 619 179 631 c 0,479,480
687 624 m 0,512,513
 670 650 670 650 674 650 c 0,514,515
 694 641 694 641 713 627 c 128,-1,516
 732 613 732 613 736 605 c 0,517,518
 745 580 745 580 745 523 c 0,519,520
 745 506 745 506 743 506 c 0,521,522
 738 506 738 506 730 516 c 0,523,524
 720 526 720 526 699 535 c 0,525,526
 667 549 667 549 658.5 556 c 128,-1,527
 650 563 650 563 643 582 c 0,528,529
 637 598 637 598 637 605 c 0,530,531
 637 609 637 609 639 609 c 0,532,533
 642 609 642 609 651 598 c 0,534,535
 660 588 660 588 686.5 568.5 c 128,-1,536
 713 549 713 549 718 549 c 2,537,-1
 719 549 l 2,538,539
 720 550 720 550 720 551 c 0,540,541
 720 570 720 570 687 624 c 0,512,513
256 663 m 0,542,543
 283 680 283 680 291 680 c 0,544,545
 294 680 294 680 294 678 c 0,546,547
 294 674 294 674 282 657 c 0,548,549
 270 641 270 641 241 617.5 c 128,-1,550
 212 594 212 594 204 594 c 2,551,-1
 202 595 l 2,552,553
 201 596 201 596 201 598 c 0,554,555
 201 608 201 608 219.5 630 c 128,-1,556
 238 652 238 652 256 663 c 0,542,543
582 683 m 0,557,558
 582 686 582 686 585 686 c 0,559,560
 590 686 590 686 624 666 c 0,561,562
 657 646 657 646 674 619 c 0,563,564
 691 591 691 591 691 588 c 0,565,566
 691 587 691 587 686.5 589 c 128,-1,567
 682 591 682 591 673.5 595.5 c 128,-1,568
 665 600 665 600 656 606 c 0,569,570
 633 621 633 621 607.5 647.5 c 128,-1,571
 582 674 582 674 582 683 c 0,557,558
EndSplineSet
Validated: 1
EndChar

StartChar: I
Encoding: 73 73 18
Width: 1004
GlyphClass: 1
Flags: W
LayerCount: 2
Fore
SplineSet
701 88 m 0,0,1
 704 102 704 102 702.5 103 c 128,-1,2
 701 104 701 104 691 94 c 0,3,4
 683 84 683 84 675 84 c 0,5,6
 671 84 671 84 623.5 60 c 128,-1,7
 576 36 576 36 574 36 c 0,8,9
 567 34 567 34 570 26 c 0,10,11
 573 20 573 20 581 20 c 0,12,13
 588 20 588 20 606 23 c 0,14,15
 652 30 652 30 673.5 44.5 c 128,-1,16
 695 59 695 59 701 88 c 0,0,1
764 144 m 0,17,18
 761 148 761 148 761 157 c 0,19,20
 761 168 761 168 763 176 c 1,21,22
 758 174 758 174 751 171 c 128,-1,23
 744 168 744 168 734 152 c 128,-1,24
 724 136 724 136 724 128 c 0,25,26
 724 127 724 127 731 128.5 c 128,-1,27
 738 130 738 130 747 132 c 0,28,29
 766 136 766 136 766 141 c 0,30,31
 765 142 765 142 764 144 c 0,17,18
254 168 m 0,32,33
 243 176 243 176 237 176 c 0,34,35
 232 176 232 176 232 169 c 0,36,37
 232 168 232 168 232.5 166 c 128,-1,38
 233 164 233 164 233 163 c 0,39,40
 235 150 235 150 230 143 c 0,41,42
 228 141 228 141 227.5 139.5 c 128,-1,43
 227 138 227 138 229 136.5 c 128,-1,44
 231 135 231 135 234.5 134 c 128,-1,45
 238 133 238 133 244 132 c 0,46,47
 283 126 283 126 300 81 c 0,48,49
 306 64 306 64 311 60 c 128,-1,50
 316 56 316 56 327 54 c 0,51,52
 342 52 342 52 352 39 c 0,53,54
 362 28 362 28 389 22 c 0,55,56
 416 17 416 17 421 17 c 0,57,58
 430 17 430 17 430 26 c 0,59,60
 430 36 430 36 383 59 c 0,61,62
 333 84 333 84 331 84 c 0,63,64
 323 84 323 84 303 103.5 c 128,-1,65
 283 123 283 123 276 138 c 0,66,67
 264 161 264 161 254 168 c 0,32,33
624 230 m 0,68,69
 591 233 591 233 583 236 c 2,70,-1
 582 236 l 2,71,72
 577 236 577 236 556 219 c 128,-1,73
 535 202 535 202 534 202 c 0,74,75
 530 201 530 201 521.5 161 c 128,-1,76
 513 121 513 121 513 103 c 0,77,78
 513 94 513 94 521 94 c 128,-1,79
 529 94 529 94 562 105 c 0,80,81
 629 126 629 126 664 192 c 0,82,83
 673 208 673 208 673 216 c 0,84,85
 673 222 673 222 664 224.5 c 128,-1,86
 655 227 655 227 624 230 c 0,68,69
438 239 m 0,87,88
 435 246 435 246 430 250 c 128,-1,89
 425 254 425 254 417 255.5 c 128,-1,90
 409 257 409 257 403 258 c 128,-1,91
 397 259 397 259 384 259.5 c 128,-1,92
 371 260 371 260 363 261 c 2,93,-1
 323 264 l 1,94,-1
 327 242 l 2,95,96
 339 183 339 183 382 143 c 0,97,98
 397 128 397 128 421.5 113 c 128,-1,99
 446 98 446 98 455 98 c 0,100,101
 457 98 457 98 458 99 c 0,102,103
 460 101 460 101 467 152 c 2,104,-1
 475 203 l 1,105,-1
 460 214 l 2,106,107
 446 224 446 224 438 239 c 0,87,88
603 424 m 0,108,109
 574 444 574 444 566 444 c 0,110,111
 561 444 561 444 558.5 434 c 128,-1,112
 556 424 556 424 549 377 c 0,113,114
 546 359 546 359 546 352 c 0,115,116
 546 341 546 341 559 328 c 128,-1,117
 572 315 572 315 579 299 c 0,118,119
 582 290 582 290 590 287 c 128,-1,120
 598 284 598 284 627 280 c 0,121,122
 664 275 664 275 671 275 c 0,123,124
 680 275 680 275 681.5 278 c 128,-1,125
 683 281 683 281 683 292 c 0,126,127
 683 326 683 326 660 363.5 c 128,-1,128
 637 401 637 401 603 424 c 0,108,109
505 430 m 2,129,-1
 508 455 l 1,130,-1
 491 454 l 2,131,132
 445 452 445 452 401 423 c 0,133,134
 382 410 382 410 361 382 c 128,-1,135
 340 354 340 354 335 336 c 2,136,-1
 331 322 l 1,137,-1
 381 316 l 1,138,-1
 431 309 l 1,139,-1
 450 327 l 2,140,141
 469 344 469 344 481 348 c 0,142,143
 496 353 496 353 505 430 c 2,129,-1
747 475 m 0,144,145
 741 475 741 475 733 492 c 0,146,147
 729 500 729 500 727.5 502.5 c 128,-1,148
 726 505 726 505 724 504 c 128,-1,149
 722 503 722 503 719 497 c 0,150,151
 714 486 714 486 697 486 c 0,152,153
 686 486 686 486 685 484 c 128,-1,154
 684 482 684 482 691 475 c 0,155,156
 700 465 700 465 694 452 c 0,157,158
 691 444 691 444 689.5 441 c 128,-1,159
 688 438 688 438 689 436.5 c 128,-1,160
 690 435 690 435 692.5 436 c 128,-1,161
 695 437 695 437 701 440 c 0,162,163
 714 446 714 446 723 438 c 0,164,165
 733 430 733 430 736 430 c 0,166,167
 740 430 740 430 740 444 c 0,168,169
 740 460 740 460 747 463 c 0,170,171
 752 465 752 465 754 468 c 128,-1,172
 756 471 756 471 754 473 c 128,-1,173
 752 475 752 475 747 475 c 0,144,145
308 496 m 0,174,175
 292 496 292 496 282 509 c 2,176,-1
 273 522 l 1,177,-1
 268 505 l 2,178,179
 262 488 262 488 251 487 c 0,180,181
 244 486 244 486 241 483.5 c 128,-1,182
 238 481 238 481 241 477.5 c 128,-1,183
 244 474 244 474 252 471 c 0,184,185
 266 465 266 465 262 449 c 0,186,187
 261 446 261 446 261 440 c 128,-1,188
 261 434 261 434 265 434 c 128,-1,189
 269 434 269 434 278 444 c 0,190,191
 284 451 284 451 288 451 c 128,-1,192
 292 451 292 451 303 446 c 0,193,194
 315 439 315 439 316 441 c 2,195,-1
 314 447 l 2,196,197
 307 466 307 466 307 471 c 0,198,199
 307 479 307 479 314 486 c 0,200,201
 321 494 321 494 320 495 c 128,-1,202
 319 496 319 496 308 496 c 0,174,175
655 521 m 2,203,204
 641 525 641 525 634 542 c 2,205,-1
 628 559 l 1,206,-1
 619 545 l 2,207,208
 613 536 613 536 608.5 534.5 c 128,-1,209
 604 533 604 533 594 535 c 2,210,-1
 577 538 l 1,211,-1
 589 526 l 2,212,213
 601 513 601 513 596 500 c 0,214,215
 592 488 592 488 594.5 484.5 c 128,-1,216
 597 481 597 481 607 486 c 0,217,218
 616 492 616 492 629 480 c 2,219,-1
 642 469 l 1,220,-1
 642 487 l 2,221,222
 642 504 642 504 656 511 c 2,223,-1
 670 518 l 1,224,-1
 655 521 l 2,203,204
394 541 m 128,-1,226
 394 545 394 545 390.5 550.5 c 128,-1,227
 387 556 387 556 383 559 c 128,-1,228
 379 562 379 562 377 560 c 0,229,230
 374 557 374 557 374 545 c 0,231,232
 374 534 374 534 357 528 c 2,233,-1
 340 523 l 1,234,-1
 355 516 l 2,235,236
 365 512 365 512 366.5 507.5 c 128,-1,237
 368 503 368 503 366 492 c 0,238,239
 365 487 365 487 365 481 c 0,240,241
 365 476 365 476 367 476 c 0,242,243
 372 476 372 476 382 486 c 0,244,245
 393 497 393 497 405 491 c 0,246,247
 416 485 416 485 418.5 487.5 c 128,-1,248
 421 490 421 490 415 501 c 0,249,250
 408 513 408 513 417 525 c 0,251,252
 420 530 420 530 421.5 532 c 128,-1,253
 423 534 423 534 422 535.5 c 128,-1,254
 421 537 421 537 419 537 c 128,-1,255
 417 537 417 537 410 537 c 0,256,225
 394 537 394 537 394 541 c 128,-1,226
545 573 m 2,257,258
 534 573 534 573 529.5 577 c 128,-1,259
 525 581 525 581 518 595 c 2,260,-1
 508 617 l 1,261,-1
 500 597 l 2,262,263
 495 584 495 584 490.5 581 c 128,-1,264
 486 578 486 578 474 578 c 0,265,266
 457 578 457 578 457 575 c 0,267,268
 457 571 457 571 470 561 c 0,269,270
 481 551 481 551 481 545 c 0,271,272
 481 541 481 541 478 532 c 0,273,274
 472 517 472 517 472 512 c 0,275,276
 472 510 472 510 474 510 c 0,277,278
 477 510 477 510 486 516 c 0,279,280
 503 526 503 526 508 526 c 0,281,282
 514 526 514 526 527 516 c 0,283,284
 538 508 538 508 541 508 c 0,285,286
 543 508 543 508 543 512 c 0,287,288
 543 518 543 518 539 529 c 0,289,290
 535 543 535 543 535 544 c 0,291,292
 535 550 535 550 547 560 c 2,293,-1
 562 573 l 1,294,-1
 545 573 l 2,257,258
569 620 m 128,-1,296
 569 622 569 622 505 643 c 1,297,-1
 503 643 l 2,298,299
 495 643 495 643 471.5 635.5 c 128,-1,300
 448 628 448 628 444 624 c 2,301,-1
 443 623 l 2,302,303
 443 620 443 620 458 620 c 0,304,305
 486 620 486 620 497 626 c 0,306,307
 505 632 505 632 519 626 c 0,308,309
 533 618 533 618 560 618 c 0,310,295
 569 618 569 618 569 620 c 128,-1,296
451 646 m 2,311,312
 505 660 505 660 508 660 c 2,313,-1
 509 660 l 2,314,315
 513 660 513 660 561 644 c 2,316,-1
 606 627 l 1,317,-1
 590 612 l 2,318,319
 576 598 576 598 576 587 c 0,320,321
 576 577 576 577 580.5 573 c 128,-1,322
 585 569 585 569 600 567 c 0,323,324
 655 558 655 558 666.5 553.5 c 128,-1,325
 678 549 678 549 678 536 c 2,326,-1
 678 521 l 1,327,-1
 734 523 l 2,328,329
 740 523 740 523 750 523.5 c 128,-1,330
 760 524 760 524 763 524 c 0,331,332
 789 524 789 524 789 518 c 0,333,334
 789 495 789 495 782.5 469 c 128,-1,335
 776 443 776 443 769 425.5 c 128,-1,336
 762 408 762 408 762 406 c 0,337,338
 765 405 765 405 769.5 406 c 128,-1,339
 774 407 774 407 786 411 c 0,340,341
 810 419 810 419 820 419 c 0,342,343
 831 419 831 419 879 432 c 0,344,345
 918 443 918 443 933 443 c 0,346,347
 950 443 950 443 950 432 c 0,348,349
 950 424 950 424 929.5 412 c 128,-1,350
 909 400 909 400 879 390 c 128,-1,351
 849 380 849 380 842 373 c 0,352,353
 835 367 835 367 793 352 c 2,354,-1
 752 337 l 1,355,-1
 791 339 l 2,356,357
 838 341 838 341 864 344 c 0,358,359
 886 346 886 346 892 346 c 0,360,361
 925 346 925 346 925 336 c 0,362,363
 925 329 925 329 905 319.5 c 128,-1,364
 885 310 885 310 863 305 c 0,365,366
 848 302 848 302 811 290.5 c 128,-1,367
 774 279 774 279 756 276 c 0,368,369
 732 272 732 272 732 267 c 0,370,371
 732 264 732 264 746 264 c 2,372,-1
 751 264 l 2,373,374
 762 264 762 264 780 264.5 c 128,-1,375
 798 265 798 265 806 265 c 0,376,377
 885 265 885 265 896 257 c 0,378,379
 902 253 902 253 903 251.5 c 128,-1,380
 904 250 904 250 902.5 248 c 128,-1,381
 901 246 901 246 894 242 c 0,382,383
 885 236 885 236 841 227 c 128,-1,384
 797 218 797 218 791 216 c 0,385,386
 785 213 785 213 750 208 c 2,387,-1
 722 205 l 1,388,-1
 707 175 l 2,389,390
 692 144 692 144 671 122 c 0,391,392
 655 103 655 103 655 102 c 0,393,394
 655 100 655 100 665 106 c 0,395,396
 692 119 692 119 708 157 c 0,397,398
 718 181 718 181 737 189 c 0,399,400
 751 196 751 196 785 196 c 0,401,402
 809 196 809 196 825 192 c 0,403,404
 835 189 835 189 835 188 c 0,405,406
 835 186 835 186 810 173 c 2,407,-1
 780 158 l 1,408,409
 789 150 789 150 807.5 133.5 c 128,-1,410
 826 117 826 117 835 109 c 1,411,-1
 799 112 l 2,412,413
 790 113 790 113 776 113 c 0,414,415
 751 113 751 113 738 105 c 128,-1,416
 725 97 725 97 720 77 c 0,417,418
 715 53 715 53 704 41 c 0,419,420
 680 11 680 11 596 1 c 2,421,-1
 551 -6 l 2,422,423
 550 -10 550 -10 526.5 -58 c 128,-1,424
 503 -106 503 -106 501 -106 c 0,425,426
 498 -106 498 -106 480 -70 c 128,-1,427
 462 -34 462 -34 455 -14 c 0,428,429
 452 -6 452 -6 414 -2 c 0,430,431
 340 6 340 6 334 20 c 0,432,433
 331 27 331 27 325 24 c 0,434,435
 324 24 324 24 324 24 c 1,436,-1
 322 23 l 1,437,438
 313 23 313 23 301 36.5 c 128,-1,439
 289 50 289 50 283 68 c 0,440,441
 273 96 273 96 262.5 103.5 c 128,-1,442
 252 111 252 111 220 111 c 2,443,-1
 208 111 l 1,444,-1
 161 111 l 1,445,446
 190 135 190 135 216 160 c 1,447,-1
 185 174 l 2,448,449
 160 185 160 185 160 188 c 0,450,451
 160 190 160 190 165 192 c 0,452,453
 178 197 178 197 207 197 c 0,454,455
 246 197 246 197 263 190 c 0,456,457
 281 182 281 182 294 154 c 0,458,459
 308 125 308 125 328 112 c 0,460,461
 346 100 346 100 349 100 c 0,462,463
 350 100 350 100 350 101 c 0,464,465
 350 106 350 106 328 128 c 0,466,467
 302 156 302 156 299 169 c 0,468,469
 290 207 290 207 262 207 c 0,470,471
 243 207 243 207 227 214 c 0,472,473
 219 218 219 218 184.5 225 c 128,-1,474
 150 232 150 232 122.5 239.5 c 128,-1,475
 95 247 95 247 95 254 c 0,476,477
 95 269 95 269 143 269 c 2,478,-1
 166 269 l 2,479,480
 174 269 174 269 189 268.5 c 128,-1,481
 204 268 204 268 210 268 c 0,482,483
 271 268 271 268 271 273 c 128,-1,484
 271 278 271 278 237 282 c 0,485,486
 211 286 211 286 200 293 c 0,487,488
 193 298 193 298 150 308 c 0,489,490
 120 315 120 315 96.5 326 c 128,-1,491
 73 337 73 337 73 345 c 0,492,493
 73 355 73 355 102 355 c 0,494,495
 120 355 120 355 159 350.5 c 128,-1,496
 198 346 198 346 206 346 c 2,497,-1
 211 346 l 1,498,-1
 232 349 l 1,499,-1
 210 358 l 2,500,501
 188 367 188 367 182 367 c 0,502,503
 177 367 177 367 163 379 c 0,504,505
 147 393 147 393 124 401 c 0,506,507
 54 425 54 425 54 448 c 0,508,509
 54 457 54 457 57 458.5 c 128,-1,510
 60 460 60 460 73 458 c 0,511,512
 88 455 88 455 137 441 c 128,-1,513
 186 427 186 427 198 424 c 0,514,515
 220 419 220 419 230 415 c 1,516,-1
 231 414 l 2,517,518
 232 414 232 414 233 414 c 0,519,520
 235 414 235 414 235 418 c 0,521,522
 235 429 235 429 211 526 c 2,523,-1
 208 538 l 1,524,-1
 268 535 l 1,525,-1
 327 531 l 1,526,-1
 327 562 l 1,527,528
 345 565 345 565 382 569.5 c 128,-1,529
 419 574 419 574 438 576 c 1,530,-1
 436 591 l 2,531,532
 432 608 432 608 419 620 c 2,533,-1
 403 633 l 1,534,-1
 451 646 l 2,311,312
EndSplineSet
Validated: 1
EndChar

StartChar: J
Encoding: 74 74 19
Width: 988
GlyphClass: 1
Flags: W
LayerCount: 2
Fore
SplineSet
66 300 m 256,0,1
 66 213 66 213 100 134 c 128,-1,2
 134 55 134 55 191 -3 c 128,-1,3
 248 -61 248 -61 328 -95 c 128,-1,4
 408 -129 408 -129 494 -129 c 0,5,6
 590 -129 590 -129 677 -88 c 128,-1,7
 764 -47 764 -47 824 26 c 0,8,9
 828 32 828 32 828 39 c 128,-1,10
 828 46 828 46 823 50 c 2,11,-1
 747 127 l 2,12,13
 741 132 741 132 732 132 c 128,-1,14
 723 132 723 132 720 125 c 0,15,16
 679 72 679 72 620 43 c 128,-1,17
 561 14 561 14 494 14 c 0,18,19
 436 14 436 14 384 37 c 128,-1,20
 332 60 332 60 292 98 c 128,-1,21
 252 136 252 136 231 189 c 128,-1,22
 210 242 210 242 209 300 c 128,-1,23
 208 358 208 358 231 411 c 128,-1,24
 254 464 254 464 291.5 502 c 128,-1,25
 329 540 329 540 383.5 563 c 128,-1,26
 438 586 438 586 492.5 586 c 128,-1,27
 547 586 547 586 598.5 566 c 128,-1,28
 650 546 650 546 688 509 c 1,29,-1
 612 432 l 2,30,31
 594 416 594 416 603 394 c 128,-1,32
 612 372 612 372 636 371 c 2,33,-1
 886 371 l 2,34,35
 902 371 902 371 911.5 382 c 128,-1,36
 921 393 921 393 922 407 c 2,37,-1
 922 657 l 2,38,39
 922 681 922 681 900.5 691 c 128,-1,40
 879 701 879 701 862 682 c 2,41,-1
 790 610 l 1,42,43
 730 667 730 667 653 698 c 128,-1,44
 576 729 576 729 494 729 c 0,45,46
 406 729 406 729 327.5 695 c 128,-1,47
 249 661 249 661 190.5 603 c 128,-1,48
 132 545 132 545 99 466 c 128,-1,49
 66 387 66 387 66 300 c 256,0,1
EndSplineSet
Validated: 41
EndChar

StartChar: K
Encoding: 75 75 20
Width: 991
GlyphClass: 1
Flags: W
LayerCount: 2
Fore
SplineSet
910 201 m 2,0,-1
 910 197 l 1,1,2
 874 47 874 47 760 -46 c 128,-1,3
 646 -139 646 -139 493 -139 c 0,4,5
 412 -139 412 -139 336 -108 c 128,-1,6
 260 -77 260 -77 200 -20 c 1,7,-1
 128 -92 l 2,8,9
 117 -103 117 -103 103 -103 c 128,-1,10
 89 -103 89 -103 78 -92 c 128,-1,11
 67 -81 67 -81 67 -67 c 2,12,-1
 67 183 l 2,13,14
 67 197 67 197 78 208 c 128,-1,15
 89 219 89 219 103 219 c 2,16,-1
 353 219 l 2,17,18
 367 219 367 219 378 208 c 128,-1,19
 389 197 389 197 388 183 c 128,-1,20
 387 169 387 169 378 158 c 2,21,-1
 301 81 l 1,22,23
 341 44 341 44 391 24 c 128,-1,24
 441 4 441 4 496 4 c 0,25,26
 570 4 570 4 635 41 c 128,-1,27
 700 78 700 78 739 140 c 0,28,29
 745 150 745 150 768 206 c 0,30,31
 773 219 773 219 785 219 c 2,32,-1
 892 219 l 2,33,34
 900 219 900 219 905 213 c 128,-1,35
 910 207 910 207 910 201 c 2,0,-1
924 647 m 2,36,-1
 924 397 l 2,37,38
 924 383 924 383 914 372 c 128,-1,39
 904 361 904 361 888 361 c 2,40,-1
 638 361 l 2,41,42
 624 361 624 361 613 372 c 128,-1,43
 602 383 602 383 603 397 c 128,-1,44
 604 411 604 411 613 422 c 2,45,-1
 690 499 l 1,46,47
 608 576 608 576 496 576 c 0,48,49
 421 576 421 576 356 539 c 128,-1,50
 291 502 291 502 252 440 c 0,51,52
 246 430 246 430 223 374 c 0,53,54
 218 361 218 361 206 361 c 2,55,-1
 95 361 l 2,56,57
 88 361 88 361 82 367 c 128,-1,58
 76 373 76 373 77 379 c 2,59,-1
 77 383 l 1,60,61
 113 533 113 533 228 626 c 128,-1,62
 343 719 343 719 496 719 c 0,63,64
 577 719 577 719 654 688 c 128,-1,65
 731 657 731 657 791 600 c 1,66,-1
 863 672 l 2,67,68
 874 683 874 683 888 683 c 128,-1,69
 902 683 902 683 914 672 c 128,-1,70
 926 661 926 661 924 647 c 2,36,-1
EndSplineSet
Validated: 1
EndChar

StartChar: M
Encoding: 77 77 21
Width: 976
GlyphClass: 1
Flags: W
LayerCount: 2
Fore
SplineSet
420 235 m 0,0,1
 422 237 422 237 479 237 c 2,2,-1
 519 237 l 2,3,4
 590 235 590 235 602 233.5 c 128,-1,5
 614 232 614 232 616 224 c 2,6,-1
 618 212 l 1,7,-1
 517 212 l 2,8,9
 479 212 479 212 461 212 c 128,-1,10
 443 212 443 212 431.5 213.5 c 128,-1,11
 420 215 420 215 418 216.5 c 128,-1,12
 416 218 416 218 416 222 c 0,13,14
 416 231 416 231 420 235 c 0,0,1
427 351 m 128,-1,16
 440 351 440 351 445 347 c 0,17,18
 451 343 451 343 460 322 c 0,19,20
 469 300 469 300 473 300 c 0,21,22
 478 300 478 300 490 325 c 128,-1,23
 502 350 502 350 515 351 c 0,24,25
 529 353 529 353 532 344 c 0,26,27
 536 336 536 336 545 341 c 0,28,29
 553 346 553 346 578 346 c 0,30,31
 602 346 602 346 607 337 c 0,32,33
 612 327 612 327 612 323 c 0,34,35
 612 317 612 317 601 317 c 0,36,37
 599 317 599 317 585 319 c 0,38,39
 562 321 562 321 562 316 c 0,40,41
 566 310 566 310 579 310 c 0,42,43
 590 310 590 310 603.5 297.5 c 128,-1,44
 617 285 617 285 617 275 c 0,45,46
 617 262 617 262 601 252.5 c 128,-1,47
 585 243 585 243 565 243 c 0,48,49
 530 243 530 243 530 263 c 2,50,-1
 530 268 l 2,51,52
 531 275 531 275 541 275 c 0,53,54
 546 275 546 275 568 270 c 0,55,56
 570 270 570 270 572.5 269.5 c 128,-1,57
 575 269 575 269 576 269 c 0,58,59
 584 269 584 269 584 272 c 0,60,61
 584 276 584 276 564 281 c 0,62,63
 549 284 549 284 539 292.5 c 128,-1,64
 529 301 529 301 529 311 c 0,65,66
 529 320 529 320 526 320 c 0,67,68
 522 320 522 320 504 283 c 0,69,70
 484 244 484 244 474 244 c 0,71,72
 462 244 462 244 437 294 c 0,73,74
 414 340 414 340 414 347 c 0,75,15
 414 351 414 351 427 351 c 128,-1,16
420 379 m 0,76,77
 422 381 422 381 479 381 c 2,78,-1
 519 381 l 2,79,80
 593 379 593 379 604 378 c 128,-1,81
 615 377 615 377 616 369 c 2,82,-1
 618 357 l 1,83,-1
 517 357 l 2,84,85
 445 357 445 357 430.5 358 c 128,-1,86
 416 359 416 359 416 366 c 0,87,88
 416 375 416 375 420 379 c 0,76,77
627 166 m 1,89,-1
 627 419 l 1,90,-1
 747 419 l 2,91,92
 837 419 837 419 854.5 417.5 c 128,-1,93
 872 416 872 416 887 406 c 0,94,95
 913 388 913 388 919.5 363.5 c 128,-1,96
 926 339 926 339 926 259 c 2,97,-1
 926 166 l 1,98,-1
 864 166 l 1,99,-1
 864 258 l 2,100,101
 864 350 864 350 858 356 c 128,-1,102
 852 362 852 362 830 362 c 2,103,-1
 808 362 l 1,104,-1
 808 166 l 1,105,-1
 746 166 l 1,106,-1
 745 263 l 1,107,-1
 743 359 l 1,108,-1
 692 359 l 1,109,-1
 690 263 l 1,110,-1
 689 166 l 1,111,-1
 627 166 l 1,89,-1
50 165 m 1,112,-1
 50 419 l 1,113,-1
 93 419 l 1,114,-1
 135 418 l 1,115,-1
 174 356 l 2,116,117
 183 341 183 341 193.5 324.5 c 128,-1,118
 204 308 204 308 210.5 297.5 c 128,-1,119
 217 287 217 287 218 286 c 2,120,-1
 222 282 l 2,121,122
 227 282 227 282 271 352 c 0,123,124
 295 388 295 388 302 399 c 2,125,-1
 314 419 l 1,126,-1
 356 418 l 1,127,-1
 398 416 l 1,128,-1
 398 169 l 1,129,-1
 321 169 l 1,130,131
 320 191 320 191 318 233.5 c 128,-1,132
 316 276 316 276 315 297 c 1,133,134
 275 226 275 226 244 166 c 1,135,-1
 224 166 l 2,136,137
 207 166 207 166 199 176 c 128,-1,138
 191 186 191 186 160 246 c 0,139,140
 134 295 134 295 131 295 c 128,-1,141
 128 295 128 295 126 232 c 2,142,-1
 125 169 l 1,143,144
 113 168 113 168 88 167 c 128,-1,145
 63 166 63 166 50 165 c 1,112,-1
EndSplineSet
Validated: 1
EndChar

StartChar: S
Encoding: 83 83 22
Width: 685
GlyphClass: 1
Flags: W
LayerCount: 2
Fore
SplineSet
439 627 m 0,0,1
 380 646 380 646 331 646 c 0,2,3
 323 646 323 646 321 644 c 128,-1,4
 319 642 319 642 285 636 c 0,5,6
 258 631 258 631 217.5 612.5 c 128,-1,7
 177 594 177 594 158 577 c 0,8,9
 128 550 128 550 109 496 c 0,10,11
 97 463 97 463 97 428 c 0,12,13
 97 360 97 360 139 315 c 0,14,15
 166 285 166 285 210.5 268.5 c 128,-1,16
 255 252 255 252 341 241 c 0,17,18
 396 234 396 234 414 228.5 c 128,-1,19
 432 223 432 223 449 206 c 0,20,21
 460 196 460 196 462.5 188.5 c 128,-1,22
 465 181 465 181 465 161 c 128,-1,23
 465 141 465 141 462.5 133.5 c 128,-1,24
 460 126 460 126 448 115 c 0,25,26
 432 99 432 99 406 91 c 0,27,28
 384 84 384 84 344 84 c 0,29,30
 310 84 310 84 294 89 c 0,31,32
 275 94 275 94 254 112.5 c 128,-1,33
 233 131 233 131 228 148 c 2,34,-1
 222 166 l 1,35,-1
 90 166 l 1,36,-1
 96 142 l 2,37,38
 113 60 113 60 180.5 9.5 c 128,-1,39
 248 -41 248 -41 342 -42 c 2,40,-1
 345 -42 l 2,41,42
 423 -42 423 -42 487 -7 c 128,-1,43
 551 28 551 28 580 87 c 0,44,45
 600 129 600 129 600 175 c 0,46,47
 600 208 600 208 590 234 c 0,48,49
 548 344 548 344 351 366 c 0,50,51
 301 372 301 372 282 379 c 128,-1,52
 263 386 263 386 247 403 c 0,53,54
 228 425 228 425 228 449 c 0,55,56
 228 468 228 468 240 486 c 0,57,58
 256 509 256 509 278 518 c 128,-1,59
 300 527 300 527 342 527 c 0,60,61
 376 527 376 527 387.5 524.5 c 128,-1,62
 399 522 399 522 415 512 c 0,63,64
 440 496 440 496 448 476 c 2,65,-1
 458 455 l 1,66,-1
 589 455 l 1,67,-1
 586 472 l 2,68,69
 583 489 583 489 570 516.5 c 128,-1,70
 557 544 557 544 545 561 c 0,71,72
 512 604 512 604 439 627 c 0,0,1
282 676 m 0,73,74
 300 679 300 679 329 679 c 0,75,76
 404 679 404 679 440 668 c 0,77,78
 583 625 583 625 617 498 c 0,79,80
 624 471 624 471 624 454 c 0,81,82
 624 436 624 436 616 428 c 0,83,84
 611 422 611 422 595.5 420.5 c 128,-1,85
 580 419 580 419 523 419 c 0,86,87
 454 419 454 419 436.5 423.5 c 128,-1,88
 419 428 419 428 419 447 c 0,89,90
 419 457 419 457 404 472 c 0,91,92
 381 493 381 493 340 493 c 0,93,94
 313 493 313 493 291.5 483.5 c 128,-1,95
 270 474 270 474 266 457 c 0,96,97
 264 449 264 449 264 446 c 0,98,99
 264 430 264 430 284.5 420.5 c 128,-1,100
 305 411 305 411 353 405 c 0,101,102
 469 390 469 390 528 358 c 0,103,104
 588 326 588 326 617 264 c 0,105,106
 628 241 628 241 630.5 227 c 128,-1,107
 633 213 633 213 633 171 c 0,108,109
 633 128 633 128 630.5 115 c 128,-1,110
 628 102 628 102 613 72 c 0,111,112
 580 4 580 4 505.5 -37.5 c 128,-1,113
 431 -79 431 -79 344 -79 c 0,114,115
 317 -79 317 -79 285 -74 c 0,116,117
 192 -58 192 -58 130.5 2 c 128,-1,118
 69 62 69 62 57 147 c 0,119,120
 53 173 53 173 53 178 c 0,121,122
 53 195 53 195 68.5 198.5 c 128,-1,123
 84 202 84 202 145 202 c 2,124,-1
 156 202 l 2,125,126
 230 202 230 202 243.5 198 c 128,-1,127
 257 194 257 194 261 172 c 0,128,129
 261 171 261 171 261 170 c 0,130,131
 270 120 270 120 345 120 c 0,132,133
 353 120 353 120 371 122 c 0,134,135
 425 128 425 128 428 158 c 2,136,-1
 428 164 l 2,137,138
 428 182 428 182 405 190.5 c 128,-1,139
 382 199 382 199 316 207 c 0,140,141
 205 220 205 220 145 260 c 128,-1,142
 85 300 85 300 66 375 c 0,143,144
 58 409 58 409 58 436 c 0,145,146
 58 524 58 524 119.5 590.5 c 128,-1,147
 181 657 181 657 282 676 c 0,73,74
EndSplineSet
Validated: 1
EndChar

StartChar: a
Encoding: 97 97 23
Width: 888
GlyphClass: 1
Flags: W
LayerCount: 2
Fore
SplineSet
444 49 m 1,0,-1
 444 183 l 1,1,-1
 180 183 l 1,2,-1
 180 49 l 1,3,-1
 444 49 l 1,0,-1
724 644 m 1,4,-1
 703 665 l 1,5,-1
 177 665 l 1,6,7
 166 651 166 651 144 621 c 1,8,-1
 294 620 l 2,9,10
 314 620 314 620 365 619.5 c 128,-1,11
 416 619 416 619 444 619 c 128,-1,12
 472 619 472 619 523 619.5 c 128,-1,13
 574 620 574 620 594 620 c 2,14,-1
 744 621 l 1,15,-1
 724 644 l 1,4,-1
154 700 m 0,16,17
 168 707 168 707 449 707 c 2,18,-1
 731 707 l 1,19,-1
 760 677 l 2,20,21
 789 647 789 647 812 616 c 2,22,-1
 835 586 l 1,23,-1
 837 287 l 1,24,-1
 838 -11 l 1,25,-1
 826 -34 l 2,26,27
 814 -57 814 -57 791 -69 c 2,28,-1
 769 -81 l 1,29,-1
 449 -81 l 2,30,31
 130 -81 130 -81 112 -76 c 0,32,33
 96 -72 96 -72 79 -54.5 c 128,-1,34
 62 -37 62 -37 56 -19 c 128,-1,35
 50 -1 50 -1 50 283 c 0,36,37
 50 493 50 493 51.5 534 c 128,-1,38
 53 575 53 575 60 590 c 0,39,40
 70 610 70 610 105.5 652 c 128,-1,41
 141 694 141 694 154 700 c 0,16,17
EndSplineSet
Validated: 1
EndChar

StartChar: b
Encoding: 98 98 24
Width: 980
GlyphClass: 1
Flags: W
LayerCount: 2
Fore
SplineSet
486 18 m 1,0,-1
 486 209 l 1,1,-1
 196 209 l 1,2,-1
 196 18 l 1,3,-1
 486 18 l 1,0,-1
100 545 m 0,4,5
 102 550 102 550 316 550 c 2,6,-1
 490 550 l 1,7,-1
 877 549 l 1,8,-1
 900 442 l 2,9,10
 922 335 922 335 925 273 c 2,11,-1
 928 209 l 1,12,-1
 880 209 l 1,13,-1
 879 63 l 1,14,-1
 877 -83 l 1,15,-1
 779 -83 l 1,16,-1
 777 63 l 1,17,-1
 776 209 l 1,18,-1
 585 209 l 1,19,-1
 585 -86 l 1,20,-1
 343 -85 l 1,21,-1
 100 -83 l 1,22,23
 100 -34 100 -34 99 63 c 128,-1,24
 98 160 98 160 98 209 c 1,25,-1
 51 209 l 1,26,-1
 51 256 l 2,27,28
 51 309 51 309 74 421 c 0,29,30
 96 528 96 528 100 545 c 0,4,5
101 693 m 0,31,32
 103 695 103 695 331 695 c 2,33,-1
 491 695 l 1,34,-1
 877 694 l 1,35,36
 877 678 877 678 878.5 646 c 128,-1,37
 880 614 880 614 881 598 c 1,38,-1
 98 598 l 1,39,-1
 98 644 l 2,40,41
 98 690 98 690 101 693 c 0,31,32
EndSplineSet
Validated: 1
EndChar

StartChar: c
Encoding: 99 99 25
Width: 682
GlyphClass: 1
Flags: W
LayerCount: 2
Fore
SplineSet
485 404 m 0,0,1
 468 411 468 411 458 411 c 0,2,3
 426 408 426 408 410 397 c 2,4,-1
 397 389 l 1,5,-1
 437 352 l 2,6,7
 473 319 473 319 473 309 c 0,8,9
 473 302 473 302 466 302 c 0,10,11
 462 302 462 302 435 313 c 0,12,13
 404 326 404 326 396 326 c 0,14,15
 393 326 393 326 392 325 c 0,16,17
 386 322 386 322 386 319 c 0,18,19
 386 317 386 317 398 299 c 0,20,21
 419 269 419 269 443 269 c 0,22,23
 453 269 453 269 468 274 c 0,24,25
 490 282 490 282 503.5 301.5 c 128,-1,26
 517 321 517 321 517 344 c 0,27,28
 517 351 517 351 516 354 c 0,29,30
 512 378 512 378 506 387.5 c 128,-1,31
 500 397 500 397 485 404 c 0,0,1
574 691 m 0,32,33
 579 694 579 694 581.5 691.5 c 128,-1,34
 584 689 584 689 588 679 c 0,35,36
 599 654 599 654 610 637 c 0,37,38
 626 611 626 611 626 597 c 0,39,40
 626 579 626 579 604 547 c 0,41,42
 579 510 579 510 554 499 c 0,43,44
 528 486 528 486 524 482 c 0,45,46
 523 481 523 481 523 473 c 0,47,48
 523 458 523 458 527 422.5 c 128,-1,49
 531 387 531 387 535 356.5 c 128,-1,50
 539 326 539 326 539 325 c 0,51,52
 539 313 539 313 519 288 c 0,53,54
 506 271 506 271 496.5 265.5 c 128,-1,55
 487 260 487 260 463 253 c 0,56,57
 440 247 440 247 432 241.5 c 128,-1,58
 424 236 424 236 414 220 c 0,59,60
 399 196 399 196 399 185 c 0,61,62
 399 168 399 168 438 27 c 0,63,64
 451 -19 451 -19 451 -25 c 0,65,66
 451 -32 451 -32 352 -60 c 2,67,-1
 254 -87 l 1,68,-1
 228 -65 l 2,69,70
 209 -49 209 -49 206 -42.5 c 128,-1,71
 203 -36 203 -36 202 -12 c 2,72,-1
 197 106 l 2,73,74
 194 170 194 170 191.5 184.5 c 128,-1,75
 189 199 189 199 178 217 c 0,76,77
 168 234 168 234 160.5 240 c 128,-1,78
 153 246 153 246 130 253 c 2,79,-1
 96 265 l 1,80,-1
 94 287 l 1,81,-1
 93 308 l 1,82,-1
 75 297 l 2,83,84
 63 289 63 289 57 289 c 0,85,86
 54 289 54 289 54 291 c 0,87,88
 54 297 54 297 74 317 c 0,89,90
 90 333 90 333 94 341 c 128,-1,91
 98 349 98 349 98 366 c 0,92,93
 98 390 98 390 103 402 c 128,-1,94
 108 414 108 414 302 525 c 0,95,96
 521 650 521 650 531 661 c 0,97,98
 534 665 534 665 534 670 c 0,99,100
 534 677 534 677 541.5 683.5 c 128,-1,101
 549 690 549 690 556 690 c 0,102,103
 559 690 559 690 560 689 c 0,104,105
 565 686 565 686 574 691 c 0,32,33
EndSplineSet
Validated: 1
EndChar

StartChar: d
Encoding: 100 100 26
Width: 790
GlyphClass: 1
Flags: W
LayerCount: 2
Fore
SplineSet
345 644 m 0,0,1
 340 649 340 649 271 649 c 0,2,3
 222 649 222 649 166 646 c 2,4,-1
 133 644 l 1,5,-1
 136 477 l 2,6,7
 140 310 140 310 142 308 c 0,8,9
 143 306 143 306 185 330.5 c 128,-1,10
 227 355 227 355 230 360 c 0,11,12
 231 364 231 364 237 364 c 0,13,14
 248 364 248 364 294 336 c 0,15,16
 339 308 339 308 346 308 c 0,17,18
 352 308 352 308 352 458 c 0,19,20
 352 637 352 637 345 644 c 0,0,1
113 733 m 0,21,22
 125 736 125 736 296 736 c 2,23,-1
 403 736 l 2,24,25
 616 735 616 735 656 731.5 c 128,-1,26
 696 728 696 728 714 709 c 1,27,28
 714 709 714 709 714 708 c 1,29,-1
 715 708 l 1,30,31
 730 691 730 691 734 667 c 0,32,33
 740 627 740 627 740 301 c 2,34,-1
 740 -58 l 1,35,-1
 728 -81 l 2,36,37
 715 -105 715 -105 700 -115 c 0,38,39
 687 -123 687 -123 650 -124.5 c 128,-1,40
 613 -126 613 -126 412 -128 c 0,41,42
 379 -128 379 -128 322 -128.5 c 128,-1,43
 265 -129 265 -129 243 -129 c 0,44,45
 133 -129 133 -129 121 -127 c 0,46,47
 81 -120 81 -120 63 -80 c 2,48,-1
 51 -58 l 1,49,-1
 50 309 l 1,50,-1
 50 477 l 2,51,52
 50 611 50 611 51.5 646.5 c 128,-1,53
 53 682 53 682 59 692 c 0,54,55
 78 725 78 725 113 733 c 0,21,22
EndSplineSet
Validated: 33
EndChar

StartChar: e
Encoding: 101 101 27
Width: 970
GlyphClass: 1
Flags: W
LayerCount: 2
Fore
SplineSet
751 534 m 0,0,1
 748 542 748 542 469 542 c 0,2,3
 212 542 212 542 208 535 c 0,4,5
 206 529 206 529 206 393 c 2,6,-1
 206 297 l 1,7,-1
 208 67 l 1,8,-1
 479 65 l 1,9,-1
 558 65 l 2,10,11
 748 65 748 65 750 68 c 0,12,13
 752 90 752 90 752 384 c 0,14,15
 752 532 752 532 751 534 c 0,0,1
50 592 m 1,16,17
 63 609 63 609 78 623 c 1,18,-1
 478 623 l 1,19,-1
 878 624 l 1,20,21
 906 596 906 596 920 581 c 1,22,-1
 920 24 l 1,23,24
 892 -4 892 -4 878 -19 c 1,25,-1
 81 -19 l 1,26,27
 76 -14 76 -14 66 -2 c 128,-1,28
 56 10 56 10 51 15 c 1,29,-1
 50 304 l 1,30,-1
 50 592 l 1,16,17
EndSplineSet
Validated: 1
EndChar

StartChar: f
Encoding: 102 102 28
Width: 876
GlyphClass: 1
Flags: W
LayerCount: 2
Fore
SplineSet
392 323 m 1,0,1
 387 328 387 328 377 339.5 c 128,-1,2
 367 351 367 351 362 357 c 1,3,-1
 280 358 l 1,4,-1
 240 358 l 2,5,6
 198 358 198 358 185.5 355 c 128,-1,7
 173 352 173 352 163 341 c 2,8,-1
 151 327 l 1,9,-1
 151 42 l 1,10,-1
 166 30 l 2,11,12
 176 21 176 21 190 19.5 c 128,-1,13
 204 18 204 18 273 18 c 2,14,-1
 365 18 l 1,15,16
 383 40 383 40 392 50 c 1,17,-1
 392 323 l 1,0,1
729 521 m 1,18,-1
 699 551 l 1,19,-1
 520 551 l 1,20,-1
 490 521 l 1,21,-1
 490 287 l 2,22,23
 490 53 490 53 497 42 c 0,24,25
 506 25 506 25 521.5 22 c 128,-1,26
 537 19 537 19 611 18 c 0,27,28
 680 18 680 18 693.5 19.5 c 128,-1,29
 707 21 707 21 716 31 c 2,30,-1
 729 43 l 1,31,-1
 729 521 l 1,18,-1
107 685 m 0,32,33
 123 691 123 691 440 691 c 2,34,-1
 586 691 l 2,35,36
 668 691 668 691 705.5 690.5 c 128,-1,37
 743 690 743 690 767 684.5 c 128,-1,38
 791 679 791 679 795.5 675 c 128,-1,39
 800 671 800 671 811 656 c 2,40,-1
 825 638 l 1,41,-1
 826 313 l 2,42,43
 826 274 826 274 826.5 207 c 128,-1,44
 827 140 827 140 827 114 c 0,45,46
 827 -14 827 -14 825 -22 c 0,47,48
 821 -36 821 -36 803.5 -53.5 c 128,-1,49
 786 -71 786 -71 769 -78 c 128,-1,50
 752 -85 752 -85 575 -85 c 2,51,-1
 430 -85 l 1,52,-1
 114 -83 l 1,53,-1
 92 -68 l 2,54,55
 71 -54 71 -54 60 -32 c 0,56,57
 53 -16 53 -16 51.5 28.5 c 128,-1,58
 50 73 50 73 50 305 c 0,59,60
 50 525 50 525 51.5 574.5 c 128,-1,61
 53 624 53 624 60 638 c 0,62,63
 78 674 78 674 107 685 c 0,32,33
EndSplineSet
Validated: 1
EndChar

StartChar: g
Encoding: 103 103 29
Width: 875
GlyphClass: 1
Flags: W
LayerCount: 2
Fore
SplineSet
306 88 m 1,0,-1
 306 259 l 1,1,-1
 266 260 l 1,2,-1
 249 260 l 2,3,4
 226 260 226 260 224 255 c 0,5,6
 222 249 222 249 222 202 c 2,7,-1
 222 168 l 1,8,-1
 224 88 l 1,9,-1
 306 88 l 1,0,-1
479 237 m 1,10,-1
 477 388 l 1,11,-1
 438 390 l 1,12,-1
 397 391 l 1,13,-1
 397 85 l 1,14,-1
 480 85 l 1,15,-1
 479 237 l 1,10,-1
654 88 m 1,16,17
 654 160 654 160 655 304 c 128,-1,18
 656 448 656 448 656 520 c 1,19,-1
 573 520 l 1,20,-1
 573 84 l 1,21,22
 586 84 586 84 613 86 c 128,-1,23
 640 88 640 88 654 88 c 1,16,17
96 681 m 0,24,25
 109 688 109 688 155.5 689 c 128,-1,26
 202 690 202 690 438 691 c 2,27,-1
 533 691 l 2,28,29
 718 691 718 691 754.5 686.5 c 128,-1,30
 791 682 791 682 808 660 c 0,31,32
 810 657 810 657 811 656 c 2,33,-1
 825 638 l 1,34,-1
 825 -33 l 1,35,-1
 811 -51 l 2,36,37
 810 -52 810 -52 808 -55 c 0,38,39
 791 -77 791 -77 754.5 -81.5 c 128,-1,40
 718 -86 718 -86 533 -86 c 2,41,-1
 438 -86 l 1,42,-1
 115 -86 l 1,43,-1
 94 -74 l 2,44,45
 73 -63 73 -63 62 -42 c 2,46,-1
 50 -21 l 1,47,-1
 52 308 l 1,48,-1
 53 637 l 1,49,-1
 65 654 l 2,50,51
 77 670 77 670 96 681 c 0,24,25
EndSplineSet
Validated: 1
EndChar

StartChar: h
Encoding: 104 104 30
Width: 875
GlyphClass: 1
Flags: W
LayerCount: 2
Fore
SplineSet
804 680 m 2,0,-1
 60 680 l 2,1,2
 34 680 34 680 17 663 c 128,-1,3
 0 646 0 646 0 618 c 2,4,-1
 0 3 l 2,5,6
 0 -24 0 -24 17 -42 c 128,-1,7
 34 -60 34 -60 60 -60 c 2,8,-1
 804 -60 l 2,9,10
 830 -60 830 -60 847 -42 c 128,-1,11
 864 -24 864 -24 864 3 c 2,12,-1
 864 618 l 2,13,14
 864 646 864 646 847 663 c 128,-1,15
 830 680 830 680 804 680 c 2,0,-1
124 250 m 1,16,-1
 250 370 l 1,17,-1
 124 496 l 1,18,-1
 184 558 l 1,19,-1
 370 370 l 1,20,-1
 184 188 l 1,21,-1
 124 250 l 1,16,-1
620 188 m 1,22,-1
 370 188 l 1,23,-1
 370 250 l 1,24,-1
 620 250 l 1,25,-1
 620 188 l 1,22,-1
EndSplineSet
Validated: 9
EndChar

StartChar: m
Encoding: 109 109 31
Width: 861
GlyphClass: 1
Flags: W
LayerCount: 2
Fore
SplineSet
336 680 m 0,0,1
 349 684 349 684 424 686 c 2,2,-1
 447 686 l 2,3,4
 500 686 500 686 532 676 c 0,5,6
 596 659 596 659 663 609 c 2,7,-1
 689 590 l 1,8,-1
 727 625 l 2,9,10
 764 661 764 661 781 661 c 0,11,12
 790 661 790 661 800 651 c 0,13,14
 807 644 807 644 808.5 625 c 128,-1,15
 810 606 810 606 810 515 c 2,16,-1
 810 389 l 1,17,-1
 798 378 l 2,18,19
 790 371 790 371 779.5 369 c 128,-1,20
 769 367 769 367 730 367 c 2,21,-1
 686 367 l 2,22,23
 631 368 631 368 577 368 c 0,24,25
 570 367 570 367 569 351.5 c 128,-1,26
 568 336 568 336 568 259 c 2,27,-1
 568 151 l 1,28,-1
 491 151 l 1,29,-1
 490 221 l 1,30,-1
 488 292 l 1,31,-1
 471 265 l 2,32,33
 459 246 459 246 453 242 c 128,-1,34
 447 238 447 238 429 238 c 128,-1,35
 411 238 411 238 405.5 242 c 128,-1,36
 400 246 400 246 385 268 c 2,37,-1
 364 297 l 1,38,-1
 363 224 l 1,39,-1
 361 151 l 1,40,-1
 285 151 l 1,41,-1
 285 460 l 1,42,-1
 351 460 l 1,43,-1
 380 418 l 2,44,45
 404 379 404 379 419 362 c 2,46,-1
 428 349 l 1,47,-1
 438 362 l 2,48,49
 459 391 459 391 475 416 c 2,50,-1
 504 457 l 1,51,-1
 532 459 l 2,52,53
 561 461 561 461 578 478 c 2,54,-1
 595 495 l 1,55,-1
 583 506 l 2,56,57
 553 530 553 530 492 550 c 0,58,59
 468 558 468 558 439 558 c 0,60,61
 436 558 436 558 427.5 557.5 c 128,-1,62
 419 557 419 557 414 557 c 0,63,64
 379 555 379 555 364.5 552 c 128,-1,65
 350 549 350 549 321 534 c 0,66,67
 269 509 269 509 233 466.5 c 128,-1,68
 197 424 197 424 183 372 c 0,69,70
 177 348 177 348 177 332 c 0,71,72
 177 329 177 329 181 287 c 0,73,74
 197 147 197 147 316 84 c 0,75,76
 372 54 372 54 431 54 c 0,77,78
 526 54 526 54 600 125 c 0,79,80
 633 156 633 156 643 156 c 0,81,82
 651 156 651 156 689.5 119 c 128,-1,83
 728 82 728 82 728 74 c 0,84,85
 728 60 728 60 692 27.5 c 128,-1,86
 656 -5 656 -5 611 -31 c 0,87,88
 569 -55 569 -55 533.5 -64 c 128,-1,89
 498 -73 498 -73 439 -73 c 2,90,-1
 426 -73 l 2,91,92
 371 -73 371 -73 354 -70.5 c 128,-1,93
 337 -68 337 -68 306 -57 c 0,94,95
 228 -28 228 -28 178.5 15 c 128,-1,96
 129 58 129 58 91 131 c 0,97,98
 67 177 67 177 59 212.5 c 128,-1,99
 51 248 51 248 51 308 c 0,100,101
 52 376 52 376 63 411 c 0,102,103
 75 451 75 451 76 457 c 0,104,105
 78 477 78 477 103.5 514.5 c 128,-1,106
 129 552 129 552 161 583 c 0,107,108
 228 649 228 649 336 680 c 0,0,1
EndSplineSet
Validated: 1
EndChar

StartChar: o
Encoding: 111 111 32
Width: 849
GlyphClass: 1
Flags: W
LayerCount: 2
Fore
SplineSet
519 225 m 0,0,1
 537 246 537 246 543 248 c 0,2,3
 553 248 553 248 669.5 234.5 c 128,-1,4
 786 221 786 221 787 220 c 128,-1,5
 788 219 788 219 788 218 c 0,6,7
 788 215 788 215 780 187 c 0,8,9
 760 121 760 121 709 60.5 c 128,-1,10
 658 0 658 0 594 -31 c 0,11,12
 516 -70 516 -70 456 -70 c 2,13,-1
 447 -70 l 1,14,-1
 425 -69 l 1,15,-1
 438 54 l 2,16,17
 451 176 451 176 453 178 c 128,-1,18
 455 180 455 180 477 191 c 0,19,20
 499 203 499 203 519 225 c 0,0,1
51 275 m 0,21,22
 51 300 51 300 58 300 c 0,23,24
 64 300 64 300 161 290 c 128,-1,25
 258 280 258 280 281 277 c 0,26,27
 296 275 296 275 300.5 271.5 c 128,-1,28
 305 268 305 268 309 257 c 0,29,30
 313 244 313 244 331.5 222 c 128,-1,31
 350 200 350 200 362 193 c 0,32,33
 368 190 368 190 368 176 c 0,34,35
 368 158 368 158 358 65 c 0,36,37
 345 -57 345 -57 342 -60 c 0,38,39
 341 -61 341 -61 338 -61 c 0,40,41
 314 -61 314 -61 254 -32 c 0,42,43
 201 -6 201 -6 156.5 39 c 128,-1,44
 112 84 112 84 87 138 c 0,45,46
 51 212 51 212 51 275 c 0,21,22
503 663 m 0,47,48
 504 665 504 665 510 665 c 0,49,50
 526 665 526 665 562.5 650 c 128,-1,51
 599 635 599 635 629 615 c 0,52,53
 733 545 733 545 773 440 c 0,54,55
 782 417 782 417 790 377.5 c 128,-1,56
 798 338 798 338 798 320 c 0,57,58
 798 310 798 310 796.5 308 c 128,-1,59
 795 306 795 306 786 306 c 2,60,-1
 777 306 l 2,61,62
 755 306 755 306 652 317 c 2,63,-1
 549 329 l 1,64,-1
 537 352 l 2,65,66
 528 371 528 371 501 396 c 2,67,-1
 477 418 l 1,68,-1
 489 538 l 2,69,70
 502 660 502 660 503 663 c 0,47,48
422 669 m 128,-1,72
 422 662 422 662 409 544.5 c 128,-1,73
 396 427 396 427 396 425 c 0,74,75
 396 424 396 424 376 415 c 0,76,77
 352 404 352 404 332 381 c 2,78,-1
 308 355 l 1,79,-1
 191 366 l 2,80,81
 72 377 72 377 65 380 c 0,82,83
 59 382 59 382 59 386 c 128,-1,84
 59 390 59 390 65 410 c 0,85,86
 96 516 96 516 184 590 c 0,87,88
 210 612 210 612 257 636 c 128,-1,89
 304 660 304 660 337 668 c 0,90,91
 372 676 372 676 398 676 c 0,92,71
 422 676 422 676 422 669 c 128,-1,72
EndSplineSet
Validated: 1
EndChar

StartChar: s
Encoding: 115 115 33
Width: 865
GlyphClass: 1
Flags: W
LayerCount: 2
Fore
SplineSet
327 666 m 0,0,1
 360 676 360 676 440 676 c 0,2,3
 503 676 503 676 528 669 c 0,4,5
 557 662 557 662 601 640 c 128,-1,6
 645 618 645 618 670 599 c 2,7,-1
 698 578 l 1,8,-1
 736 614 l 2,9,10
 772 649 772 649 786 649 c 0,11,12
 794 649 794 649 804 642 c 0,13,14
 812 636 812 636 813.5 618.5 c 128,-1,15
 815 601 815 601 815 504 c 0,16,17
 815 414 815 414 813.5 392.5 c 128,-1,18
 812 371 812 371 805 365 c 128,-1,19
 798 359 798 359 777 357.5 c 128,-1,20
 756 356 756 356 678 356 c 0,21,22
 540 356 540 356 516 354 c 0,23,24
 488 352 488 352 486 352 c 0,25,26
 471 352 471 352 467 363 c 0,27,28
 460 381 460 381 431 381 c 0,29,30
 416 381 416 381 404.5 374.5 c 128,-1,31
 393 368 393 368 393 356 c 0,32,33
 393 339 393 339 453 331 c 0,34,35
 505 324 505 324 529 302 c 128,-1,36
 553 280 553 280 553 239 c 0,37,38
 553 189 553 189 520 164 c 0,39,40
 482 135 482 135 433 135 c 0,41,42
 385 135 385 135 348 163 c 2,43,-1
 332 176 l 1,44,45
 310 153 310 153 266 109 c 1,46,-1
 281 96 l 2,47,48
 347 43 347 43 438 43 c 0,49,50
 464 43 464 43 490 49 c 0,51,52
 543 62 543 62 591 101 c 128,-1,53
 639 140 639 140 658 186 c 0,54,55
 673 222 673 222 677 227 c 128,-1,56
 681 232 681 232 716 232 c 2,57,-1
 742 232 l 1,58,-1
 802 230 l 1,59,-1
 804 216 l 2,60,61
 807 191 807 191 766 109 c 0,62,63
 749 76 749 76 707.5 31.5 c 128,-1,64
 666 -13 666 -13 633 -33 c 0,65,66
 608 -49 608 -49 561 -67 c 0,67,68
 529 -79 529 -79 511 -81.5 c 128,-1,69
 493 -84 493 -84 436 -84 c 2,70,-1
 412 -84 l 2,71,72
 354 -84 354 -84 318 -72 c 0,73,74
 252 -50 252 -50 197 -9 c 2,75,-1
 168 12 l 1,76,-1
 136 -22 l 2,77,78
 103 -56 103 -56 87 -56 c 0,79,80
 70 -56 70 -56 61 -47 c 0,81,82
 55 -41 55 -41 53.5 -19.5 c 128,-1,83
 52 2 52 2 52 88 c 0,84,85
 52 171 52 171 53.5 194.5 c 128,-1,86
 55 218 55 218 61 224 c 128,-1,87
 67 230 67 230 87.5 231.5 c 128,-1,88
 108 233 108 233 190 233 c 0,89,90
 268 233 268 233 289 234.5 c 128,-1,91
 310 236 310 236 310 241 c 0,92,93
 310 248 310 248 348 248 c 0,94,95
 388 248 388 248 391 240 c 0,96,97
 401 212 401 212 434 212 c 0,98,99
 457 212 457 212 466 221 c 0,100,101
 474 229 474 229 474 234 c 0,102,103
 474 248 474 248 420 257 c 0,104,105
 376 264 376 264 354.5 275.5 c 128,-1,106
 333 287 333 287 322 310 c 0,107,108
 311 331 311 331 311 352 c 0,109,110
 311 370 311 370 318 387 c 0,111,112
 347 454 347 454 430 454 c 2,113,-1
 443 454 l 1,114,115
 493 450 493 450 520 424 c 2,116,-1
 532 412 l 1,117,118
 556 435 556 435 604 483 c 1,119,-1
 590 495 l 2,120,121
 581 503 581 503 537 526 c 0,122,123
 498 544 498 544 448 546 c 0,124,125
 437 547 437 547 419 547 c 0,126,127
 390 547 390 547 368 540 c 0,128,129
 315 525 315 525 272.5 488.5 c 128,-1,130
 230 452 230 452 208 403 c 0,131,132
 190 365 190 365 184 361 c 0,133,134
 176 357 176 357 124 357 c 0,135,136
 85 357 85 357 72 360 c 128,-1,137
 59 363 59 363 59 375 c 0,138,139
 59 385 59 385 70 415 c 0,140,141
 88 466 88 466 108.5 499.5 c 128,-1,142
 129 533 129 533 167 571 c 0,143,144
 238 641 238 641 327 666 c 0,0,1
EndSplineSet
Validated: 33
EndChar

StartChar: at
Encoding: 64 64 36
Width: 1000
Flags: W
LayerCount: 2
Fore
SplineSet
270 402 m 24,0,-1
 121 476 l 1,1,-1
 116 485 l 25,2,3
 115.307617188 485.692382812 115.307617188 485.692382812 116 489.5 c 24,4,5
 117 493 117 493 118 496 c 25,6,-1
 121 501 l 25,7,-1
 161 539 l 25,8,9
 161.922851562 539.922851562 161.922851562 539.922851562 166.5 541 c 24,10,11
 167 541 167 541 169.5 541 c 24,12,13
 170 541 170 541 173.25 540.5 c 24,14,15
 174 540 174 540 176 540 c 25,16,-1
 589 461 l 25,17,-1
 748 618 l 25,18,-1
 763 630 l 25,19,-1
 777 642 l 25,20,-1
 791 652 l 25,21,-1
 804 660 l 25,22,-1
 817 667 l 25,23,24
 828 672.5 828 672.5 832.5 674 c 24,25,26
 833 674 833 674 844 676 c 25,27,-1
 857 678 l 25,28,29
 862.25 678 862.25 678 866.5 677 c 24,30,31
 869 676 869 676 874 674 c 25,32,33
 880.333007812 670.833007812 880.333007812 670.833007812 882 669.5 c 24,34,35
 885 667 885 667 889 662 c 25,36,-1
 892 657 l 25,37,-1
 896 646 l 25,38,-1
 898 638 l 25,39,-1
 896 626 l 25,40,-1
 894 617 l 25,41,-1
 889 604 l 25,42,-1
 882 590 l 25,43,44
 877.5 582.5 877.5 582.5 874.5 578 c 24,45,46
 865 564 865 564 862 560 c 25,47,-1
 837 530 l 25,48,-1
 680 372 l 25,49,-1
 758 -41 l 25,50,51
 759 -46 759 -46 759 -49.25 c 24,52,53
 759 -53 759 -53 758 -56 c 25,54,-1
 755 -60 l 25,55,-1
 718 -97 l 25,56,-1
 712 -101 l 25,57,-1
 703 -102 l 25,58,-1
 696 -99 l 25,59,-1
 692 -96 l 25,60,-1
 688 -88 l 25,61,-1
 536 229 l 25,62,-1
 401 93 l 25,63,-1
 436 -37 l 25,64,-1
 437 -45 l 25,65,-1
 438 -51 l 25,66,67
 438 -51.5 438 -51.5 435.5 -56.5 c 24,68,69
 434 -60 434 -60 433 -61 c 25,70,-1
 396 -97 l 25,71,72
 393.543945312 -99.4560546875 393.543945312 -99.4560546875 388.5 -100.5 c 24,73,74
 387.75 -100.75 387.75 -100.75 381.5 -100 c 24,75,76
 377 -99 377 -99 376 -99 c 25,77,-1
 372 -94 l 25,78,-1
 367 -89 l 25,79,-1
 282 64 l 25,80,-1
 122 153 l 25,81,-1
 119.5 157 l 24,82,-1
 117 161 l 25,83,84
 117 162 117 162 117 165.5 c 24,85,-1
 118 170 l 25,86,-1
 119 175 l 25,87,-1
 121 178 l 25,88,-1
 160 217 l 25,89,-1
 166 219 l 25,90,91
 167 219 167 219 170.5 219 c 152,-1,92
 174 219 174 219 175 218.5 c 24,93,-1
 181.5 216 l 24,94,-1
 189 216 l 25,95,-1
 310 182 l 25,96,-1
 447 319 l 1,97,98
 447 319 447 319 270 402 c 24,0,-1
EndSplineSet
EndChar
